<svg width="1920" height="719" viewBox="0 0 1920 719" fill="none" xmlns="http://www.w3.org/2000/svg">
<g filter="url(#filter0_d_19_22)">
<path d="M1899.82 118.542C1900.5 114.628 1918.64 118.764 1937.66 124.243C1964.56 131.992 1982.86 156.389 1984.8 184.317L2048.87 1109.49C2051.65 1149.67 2020.04 1183.91 1979.76 1184.33L-211.457 1206.91C-261.549 1207.43 -314.259 1152.8 -312.365 1102.74C-304.127 884.987 -288.278 404.916 -289.736 400.542C-291.363 395.664 -247.277 384.457 -235.335 381.518C-233.355 381.031 -231.45 380.488 -229.506 379.872C-217.946 376.21 -174.181 362.972 -145.432 362.941C-145.11 362.941 -144.822 362.944 -144.5 362.95C-139.343 363.039 -92.2067 363.83 -90.4294 362.942C-88.5492 362.002 -30.2613 345.082 -21.8001 349.782C-14.9003 353.615 26.3842 359.948 41.3857 362.154C45.0146 362.688 48.587 363.485 52.1013 364.535C107.697 381.155 221.663 410.001 220.753 411.822C219.812 413.702 405.958 423.102 427.581 423.102C444.192 423.102 526.865 416.167 570.868 412.287C574.381 411.977 577.841 411.401 581.267 410.564L822.466 351.612C827.444 350.396 832.272 348.636 836.866 346.366L913.626 308.422L982.255 275.522L1047.92 253.419C1066.16 247.281 1086.27 250.896 1101.23 263.002C1111.23 271.102 1123.72 275.522 1136.59 275.522H1201.23C1208.75 275.522 1216.22 274.309 1223.36 271.931L1292.94 248.741C1303.16 245.334 1314.03 244.333 1324.7 245.815L1410.01 257.662H1509.65C1521.98 257.662 1534.09 254.406 1544.75 248.224L1586.38 224.095C1591 221.415 1595.3 218.22 1599.21 214.575C1614.76 200.064 1656.1 161.782 1659.15 161.782C1662.91 161.782 1783.24 122.302 1787.94 118.542C1792.64 114.783 1898.38 126.864 1899.82 118.542Z" fill="#153346"/>
<path d="M146.737 395.939C87.6417 407.908 50.0957 418.575 27.5764 426.69C8.57349 433.538 -12.4384 440.5 -32.6376 440.5H-41.0489C-80.8422 440.5 -112.632 473.63 -110.989 513.389L-92.1743 968.889C-90.6251 1006.39 -59.7701 1036 -22.2339 1036H1867.82C1905.36 1036 1936.22 1006.38 1937.76 968.873L1963.68 337.83C1965.43 295.203 1928.97 260.937 1886.53 265.329L1834.37 270.728C1821.37 272.074 1808.24 269.749 1796.49 264.017L1785.81 258.813C1764.33 248.339 1739 249.545 1718.61 262.011L1583.26 344.777C1573.56 350.708 1562.64 354.185 1551.29 354.901C1420.15 363.168 1185.21 376.593 1173.29 371.633C1160.82 366.447 961.472 338.684 863.354 325.451L662.472 294.663L523.975 263.029C508.034 259.387 491.353 261.471 476.665 268.656C394.517 308.836 242.65 376.513 146.737 395.939Z" fill="#102D40"/>
<path d="M16.0674 464.487L-52.6244 492.362C-74.9524 501.423 -91.0505 521.33 -95.2381 545.06L-178.5 1016.88C-186.064 1059.74 -153.091 1099.04 -109.565 1099.04H1984C2022.66 1099.04 2054 1067.7 2054 1029.04V545.205C2054 521.351 2041.85 499.139 2021.77 486.269L1940.33 434.078C1935.7 431.114 1930.75 428.705 1925.56 426.9L1912.39 422.321C1900.54 418.199 1887.8 417.338 1875.5 419.829L1827.18 429.617L1736.95 442.506C1733.67 442.974 1730.37 443.209 1727.05 443.209H1613.1C1564.96 448.589 1465.96 459.35 1455.08 459.35H1308.25C1300.27 459.35 1292.38 457.987 1284.86 455.318L968.304 342.965L895.109 324.666C889.557 323.278 883.855 322.576 878.132 322.576H840.358C831.716 322.576 823.148 324.177 815.089 327.296L794.667 335.202C781.598 340.26 767.312 341.28 753.657 338.129L744.797 336.084C735.327 333.899 725.506 333.71 715.959 335.528L687.647 340.921C680.536 342.275 673.75 344.902 667.025 347.581C653.316 353.044 635.636 356.341 631.891 342.965C628.089 329.387 603.78 332.989 585.063 338.597C576.594 341.135 567.884 342.965 559.043 342.965H524.851H490.87H459.437H434.488C421.368 342.965 408.513 346.652 397.388 353.605L385.405 361.094C382.095 363.163 378.617 364.951 375.009 366.441L326.911 386.291L294.892 397.592C287.408 400.233 279.53 401.582 271.594 401.582H258.382C244.889 401.582 231.683 405.482 220.355 412.812L211.74 418.387C200.412 425.717 187.206 429.617 173.712 429.617H161.722C153.544 429.617 145.429 431.05 137.745 433.851L79.4195 455.116C71.7359 457.917 63.6208 459.35 55.4425 459.35H42.3885C33.3657 459.35 24.428 461.094 16.0674 464.487Z" fill="#0A283B"/>
<path d="M422.275 340.844C421.027 339.239 419.72 334.3 420.704 332.334C422.211 329.319 426.533 330.239 429.318 330.239H429.449C433.066 330.238 434.974 330.238 436.859 333.8C441.609 342.771 455.551 337.438 460.556 331.181C461.855 329.558 463.471 327.98 464.903 326.468L464.948 326.421C465.812 325.508 466.582 324.696 467.286 323.64C468.074 322.459 469.325 322.413 470.114 321.493C472.263 318.986 476.394 317.57 479.331 316.361C483.526 314.633 489.399 316.782 493.863 315.995C496.699 315.494 500.077 313.743 502.844 313.743C505.912 313.743 505.909 307.939 505.908 305.75L505.908 305.625V300.52C505.908 297.788 507.322 295.314 507.322 292.429C507.322 282.779 508.736 273.6 508.736 264.018C508.736 261.744 509.678 260.225 509.678 258.127V253.414V248.439C509.678 246.811 508.795 245.484 508.736 243.883C508.638 241.237 507.215 239.485 506.143 237.127C505.331 235.34 505.318 231.74 502.608 231.262C499.869 230.778 498.641 227.355 499.335 224.925C499.706 223.627 500.723 222.951 500.723 221.364V217.358C500.723 213.013 504.531 214.631 506.274 211.938C507.066 210.714 505.967 209.726 506.353 208.376C506.798 206.817 506.85 205.49 506.85 203.82C506.85 202.451 507.053 200.949 506.484 199.683C505.634 197.796 504.022 194.868 504.022 192.823C504.022 189.122 503.701 185.29 504.494 181.721C505.72 176.203 507.322 170.101 507.322 164.544C507.322 162.986 505.908 162.52 505.908 161.244C505.908 159.486 504.965 158.459 504.965 156.793C504.965 155.56 504.642 154.123 505.698 153.258C506.923 152.256 508.622 152.24 508.736 150.195C508.968 146.021 508.736 141.752 508.736 137.574C508.736 133.024 509.837 126.672 508.474 122.387C507.112 118.106 507.793 113.106 507.793 108.614C507.793 106.791 507.808 104.828 508.997 103.298C509.581 102.548 510.149 102.351 510.988 102.015C511.815 101.684 511.3 100.728 512.035 100.339C513.351 99.6425 516.192 100.235 517.691 100.235C519.423 100.235 520.047 103.231 520.047 104.712C520.047 109.113 520.99 113.626 520.99 118.04C520.99 128.459 521.461 138.755 521.461 149.2C521.461 150.895 521.082 153.072 521.697 154.672C522.499 156.759 521.913 157.163 523.713 158.783C524.604 159.585 525.782 159.641 526.384 160.93C526.937 162.116 527.211 166.108 525.913 166.796C523.189 168.237 521.933 171.371 521.933 174.258C521.933 179.459 521.461 184.735 521.461 189.995C521.461 193.167 522.342 195.582 523.111 198.505C523.534 200.114 524.231 201.708 524.289 203.349C524.346 204.93 524.923 206.651 525.232 208.193C525.392 208.994 525.259 211.618 525.808 212.304C526.845 213.6 529.244 212.593 530.652 212.906C531.824 213.167 532.851 224.759 529.474 225.135C526.564 225.458 525.496 231.709 525.232 234.09C524.371 241.838 521.933 249.586 521.933 257.577C521.933 263.234 522.518 267.873 523.582 273.314C524.159 276.263 524.812 279.472 525.206 282.426C525.6 285.383 526.174 287.955 526.174 291.015C526.174 293.686 526.646 296.277 526.646 298.922C526.646 301.813 526.385 304.794 527.012 307.615C527.523 309.913 527.161 312.426 527.693 314.685C528.163 316.68 527.588 318.126 527.588 320.315C527.588 321.474 527.044 323.713 528.531 322.226C529.037 321.72 531.894 319.261 531.726 320.079C531.277 322.257 530.416 323.516 530.416 325.735C530.416 327.837 530.668 330.001 531.804 331.705C532.834 333.25 532.323 334.328 534.292 335.057C536.385 335.832 538.463 335.988 540.393 337.073C541.732 337.826 544.264 338.196 545.787 337.728C547.748 337.124 549.618 334.952 551.626 334.952C556.198 334.952 560.924 334.481 565.582 334.481C570.023 334.481 573.448 333.135 576.606 329.977C578.766 327.817 580.592 325.054 583.937 325.054C587.911 325.054 592.202 327.415 595.956 328.354C599.432 329.223 603.116 328.717 606.665 328.825C609.112 328.899 614.379 330.192 616.432 331.705C618.889 333.516 620.92 338.137 624 338.696C624.521 338.791 630.189 340.808 630.231 341.027C630.862 344.257 628.843 348.798 627.98 351.867C627.309 354.252 626.534 356.489 624.733 358.256C621.723 361.208 618.96 361.912 614.835 360.77C609.215 359.214 603.94 356.916 598.182 355.795C593.485 354.881 588.79 354.747 584.016 354.747C581.434 354.747 577.952 354.124 575.454 354.957C574.011 355.438 572.912 356.478 571.683 357.314C568.822 359.259 565.593 359.771 562.257 360.403C560.233 360.787 558.207 361.114 556.339 362.027C555.404 362.483 554.764 363.346 553.773 363.676C549.378 365.141 543.587 364.174 539.005 364.174C533.121 364.174 527.277 365.116 521.461 365.116C519.928 365.116 518.084 366.96 516.748 366.426C514.41 365.491 515.334 362.086 515.334 359.932C515.334 358.333 515.707 356.831 513.92 356.633C513.45 356.58 513.421 356.104 513.56 355.576C512.449 356.623 510.959 356.986 509.574 357.602C503.737 360.196 497.601 360.403 491.349 360.403H482.342C476.401 360.403 470.98 359.254 465.165 358.151C460.252 357.22 454.868 355.717 449.821 356.895C449.174 357.045 443.747 354.367 438.605 351.922C432.881 349.199 426.166 345.847 422.275 340.844Z" fill="#0A283B"/>
<rect x="1397" y="143" width="49" height="333" fill="#0A283B"/>
<rect x="1407" y="167" width="49" height="309" fill="#0A283B"/>
<rect x="1418" y="199" width="49" height="277" fill="#0A283B"/>
<path d="M1294.5 140H1318.5V504H1252L1294.5 175V140Z" fill="#0A2B41"/>
<path d="M1318.5 140H1353.5V504H1280.5L1318.5 200.5V140Z" fill="#0A283B"/>
<path d="M1286.5 457.5L1259.5 446.5L1252 504H1286.5V457.5Z" fill="#0A283B"/>
<path d="M1026.21 200.304C1031.93 190.771 1045.92 191.129 1051.43 200.787V200.787C1058.24 212.742 1063.46 225.759 1066.72 239.128L1070.31 253.795C1077.09 281.528 1081.06 309.872 1082.16 338.4L1087 463H985L993.427 334.679C995.139 308.611 999.166 282.748 1005.46 257.393L1009.75 240.114C1013.23 226.1 1018.78 212.683 1026.21 200.304V200.304Z" fill="#0A283B"/>
<rect x="216" y="191.398" width="94" height="333.602" fill="#0A283B"/>
<path d="M246.5 140L270 182.67V199.156H220L246.5 140Z" fill="#0A283B"/>
<path d="M1743 133.716C1743 132.604 1742.63 131.523 1741.95 130.646L1736 123H1779L1773.05 130.646C1772.37 131.524 1772 132.604 1772 133.716V493H1743V133.716Z" fill="#0A283B"/>
<path d="M1792 69C1792 107.108 1776.55 138 1757.5 138C1738.45 138 1723 107.108 1723 69C1723 30.8924 1740.5 9.5 1757.5 0C1776 10 1792 30.8924 1792 69Z" fill="#0A283B"/>
<path d="M0 124H76.5813C79.5009 124 81.7995 126.491 81.5652 129.401L72.5 242.012L69 525H0V124Z" fill="#0A283B"/>
</g>
<defs>
<filter id="filter0_d_19_22" x="-316.415" y="0" width="2374.41" height="1214.92" filterUnits="userSpaceOnUse" color-interpolation-filters="sRGB">
<feFlood flood-opacity="0" result="BackgroundImageFix"/>
<feColorMatrix in="SourceAlpha" type="matrix" values="0 0 0 0 0 0 0 0 0 0 0 0 0 0 0 0 0 0 127 0" result="hardAlpha"/>
<feOffset dy="4"/>
<feGaussianBlur stdDeviation="2"/>
<feComposite in2="hardAlpha" operator="out"/>
<feColorMatrix type="matrix" values="0 0 0 0 0 0 0 0 0 0 0 0 0 0 0 0 0 0 0.25 0"/>
<feBlend mode="normal" in2="BackgroundImageFix" result="effect1_dropShadow_19_22"/>
<feBlend mode="normal" in="SourceGraphic" in2="effect1_dropShadow_19_22" result="shape"/>
</filter>
</defs>
</svg>
