<svg width="1920" height="725" viewBox="0 0 1920 725" fill="none" xmlns="http://www.w3.org/2000/svg">
<g filter="url(#filter0_d_14_63)">
<path d="M16.0674 470.487L-52.6244 498.362C-74.9524 507.423 -91.0505 527.33 -95.2381 551.06L-178.5 1022.88C-186.064 1065.74 -153.091 1105.04 -109.565 1105.04H1984C2022.66 1105.04 2054 1073.7 2054 1035.04V551.205C2054 527.351 2041.85 505.139 2021.77 492.269L1940.33 440.078C1935.7 437.114 1930.75 434.705 1925.56 432.9L1912.39 428.321C1900.54 424.199 1887.8 423.338 1875.5 425.829L1827.18 435.617L1736.95 448.506C1733.67 448.974 1730.37 449.209 1727.05 449.209H1613.1C1564.96 454.589 1465.96 465.35 1455.08 465.35H1308.25C1300.27 465.35 1292.38 463.987 1284.86 461.318L968.304 348.965L895.109 330.666C889.557 329.278 883.855 328.576 878.132 328.576H840.358C831.716 328.576 823.148 330.177 815.089 333.296L794.667 341.202C781.598 346.26 767.312 347.28 753.657 344.129L744.797 342.084C735.327 339.899 725.506 339.71 715.959 341.528L687.647 346.921C680.536 348.275 673.75 350.902 667.025 353.581C653.316 359.044 635.636 362.341 631.891 348.965C628.089 335.387 603.78 338.989 585.063 344.597C576.594 347.135 567.884 348.965 559.043 348.965H524.851H490.87H459.437H434.488C421.368 348.965 408.513 352.652 397.388 359.605L385.405 367.094C382.095 369.163 378.617 370.951 375.009 372.441L326.911 392.291L294.892 403.592C287.408 406.233 279.53 407.582 271.594 407.582H258.382C244.889 407.582 231.683 411.482 220.355 418.812L211.74 424.387C200.412 431.717 187.206 435.617 173.712 435.617H161.722C153.544 435.617 145.429 437.05 137.745 439.851L79.4195 461.116C71.7359 463.917 63.6208 465.35 55.4425 465.35H42.3885C33.3657 465.35 24.428 467.094 16.0674 470.487Z" fill="#0A283B"/>
<path d="M422.275 346.844C421.027 345.239 419.721 340.3 420.704 338.334C422.211 335.319 426.533 336.239 429.318 336.239H429.449C433.066 336.238 434.974 336.238 436.859 339.8C441.609 348.771 455.552 343.438 460.556 337.181C461.855 335.558 463.471 333.98 464.903 332.468L464.948 332.421C465.813 331.508 466.582 330.696 467.286 329.64C468.074 328.459 469.325 328.413 470.114 327.493C472.263 324.986 476.394 323.57 479.331 322.361C483.526 320.633 489.399 322.782 493.863 321.995C496.699 321.494 500.077 319.743 502.844 319.743C505.913 319.743 505.909 313.939 505.908 311.75L505.908 311.625V306.52C505.908 303.788 507.322 301.314 507.322 298.429C507.322 288.779 508.736 279.6 508.736 270.018C508.736 267.744 509.678 266.225 509.678 264.127V259.414V254.439C509.678 252.811 508.795 251.484 508.736 249.883C508.638 247.237 507.215 245.485 506.144 243.127C505.331 241.34 505.318 237.74 502.609 237.262C499.869 236.778 498.641 233.355 499.336 230.925C499.706 229.627 500.723 228.951 500.723 227.364V223.358C500.723 219.013 504.532 220.631 506.274 217.938C507.066 216.714 505.967 215.726 506.353 214.376C506.799 212.817 506.85 211.49 506.85 209.82C506.85 208.451 507.054 206.949 506.484 205.683C505.635 203.796 504.023 200.868 504.023 198.823C504.023 195.122 503.701 191.29 504.494 187.721C505.72 182.203 507.322 176.101 507.322 170.544C507.322 168.986 505.908 168.52 505.908 167.244C505.908 165.486 504.965 164.459 504.965 162.793C504.965 161.56 504.642 160.123 505.698 159.258C506.923 158.256 508.622 158.24 508.736 156.195C508.968 152.021 508.736 147.752 508.736 143.574C508.736 139.024 509.837 132.672 508.474 128.387C507.112 124.106 507.793 119.106 507.793 114.614C507.793 112.791 507.808 110.828 508.998 109.298C509.581 108.548 510.149 108.351 510.988 108.015C511.816 107.684 511.301 106.728 512.035 106.339C513.352 105.642 516.192 106.235 517.691 106.235C519.423 106.235 520.047 109.231 520.047 110.712C520.047 115.113 520.99 119.626 520.99 124.04C520.99 134.459 521.461 144.755 521.461 155.2C521.461 156.895 521.082 159.072 521.697 160.672C522.5 162.759 521.913 163.163 523.713 164.783C524.604 165.585 525.782 165.641 526.384 166.93C526.938 168.116 527.211 172.108 525.913 172.796C523.189 174.237 521.933 177.371 521.933 180.258C521.933 185.459 521.461 190.735 521.461 195.995C521.461 199.167 522.342 201.582 523.111 204.505C523.535 206.114 524.231 207.708 524.289 209.349C524.346 210.93 524.924 212.651 525.232 214.193C525.392 214.994 525.259 217.618 525.808 218.304C526.845 219.6 529.244 218.593 530.652 218.906C531.824 219.167 532.852 230.759 529.474 231.135C526.564 231.458 525.497 237.709 525.232 240.09C524.371 247.838 521.933 255.586 521.933 263.577C521.933 269.234 522.518 273.873 523.582 279.314C524.159 282.263 524.812 285.472 525.206 288.426C525.6 291.383 526.175 293.955 526.175 297.015C526.175 299.686 526.646 302.277 526.646 304.922C526.646 307.813 526.386 310.794 527.012 313.615C527.523 315.913 527.162 318.426 527.693 320.685C528.163 322.68 527.589 324.126 527.589 326.315C527.589 327.474 527.044 329.713 528.531 328.226C529.037 327.72 531.894 325.261 531.726 326.079C531.277 328.257 530.416 329.516 530.416 331.735C530.416 333.837 530.668 336.001 531.804 337.705C532.834 339.25 532.323 340.328 534.292 341.057C536.385 341.832 538.464 341.988 540.393 343.073C541.732 343.826 544.264 344.196 545.787 343.728C547.749 343.124 549.618 340.952 551.626 340.952C556.198 340.952 560.925 340.481 565.582 340.481C570.024 340.481 573.448 339.135 576.606 335.977C578.766 333.817 580.593 331.054 583.937 331.054C587.911 331.054 592.202 333.415 595.956 334.354C599.432 335.223 603.116 334.717 606.666 334.825C609.112 334.899 614.379 336.192 616.432 337.705C618.889 339.516 620.92 344.137 624 344.696C624.521 344.791 630.189 346.808 630.232 347.027C630.862 350.257 628.843 354.798 627.98 357.867C627.309 360.252 626.535 362.489 624.733 364.256C621.723 367.208 618.96 367.912 614.835 366.77C609.215 365.214 603.941 362.916 598.182 361.795C593.485 360.881 588.79 360.747 584.016 360.747C581.434 360.747 577.952 360.124 575.454 360.957C574.011 361.438 572.912 362.478 571.683 363.314C568.822 365.259 565.593 365.771 562.257 366.403C560.233 366.787 558.207 367.114 556.339 368.027C555.404 368.483 554.764 369.346 553.773 369.676C549.378 371.141 543.587 370.174 539.005 370.174C533.121 370.174 527.277 371.116 521.461 371.116C519.928 371.116 518.084 372.96 516.748 372.426C514.41 371.491 515.334 368.086 515.334 365.932C515.334 364.333 515.707 362.831 513.92 362.633C513.45 362.58 513.421 362.104 513.56 361.576C512.449 362.623 510.96 362.986 509.574 363.602C503.737 366.196 497.601 366.403 491.349 366.403H482.342C476.401 366.403 470.98 365.254 465.165 364.151C460.252 363.22 454.868 361.717 449.821 362.895C449.175 363.045 443.747 360.367 438.605 357.922C432.881 355.199 426.166 351.847 422.275 346.844Z" fill="#0A283B"/>
<rect x="1397" y="149" width="49" height="333" fill="#0A283B"/>
<rect x="1407" y="173" width="49" height="309" fill="#0A283B"/>
<rect x="1418" y="205" width="49" height="277" fill="#0A283B"/>
<path d="M1294.5 146H1318.5V510H1252L1294.5 181V146Z" fill="#0A2B41"/>
<path d="M1318.5 146H1353.5V510H1280.5L1318.5 206.5V146Z" fill="#0A283B"/>
<path d="M1286.5 463.5L1259.5 452.5L1252 510H1286.5V463.5Z" fill="#0A283B"/>
<path d="M1026.21 206.304C1031.93 196.771 1045.92 197.129 1051.43 206.787V206.787C1058.24 218.742 1063.46 231.759 1066.72 245.128L1070.31 259.795C1077.09 287.528 1081.06 315.872 1082.16 344.4L1087 469H985L993.427 340.679C995.139 314.611 999.166 288.748 1005.46 263.393L1009.75 246.114C1013.23 232.1 1018.78 218.683 1026.21 206.304V206.304Z" fill="#0A283B"/>
<rect x="216" y="197.398" width="94" height="333.602" fill="#0A283B"/>
<path d="M246.5 146L270 188.67V205.156H220L246.5 146Z" fill="#0A283B"/>
<path d="M1743 139.716C1743 138.604 1742.63 137.523 1741.95 136.646L1736 129H1779L1773.05 136.646C1772.37 137.524 1772 138.604 1772 139.716V499H1743V139.716Z" fill="#0A283B"/>
<path d="M1792 75C1792 113.108 1776.55 144 1757.5 144C1738.45 144 1723 113.108 1723 75C1723 36.8924 1740.5 15.5 1757.5 6C1776 16 1792 36.8924 1792 75Z" fill="#0A283B"/>
<path d="M0 130H76.5813C79.5009 130 81.7995 132.491 81.5652 135.401L72.5 248.012L69 531H0V130Z" fill="#0A283B"/>
<g filter="url(#filter1_f_14_63)">
<path d="M1899.82 101.542C1900.5 97.628 1918.64 101.764 1937.66 107.243C1964.56 114.992 1982.86 139.389 1984.8 167.317L2048.87 1092.49C2051.65 1132.67 2020.04 1166.91 1979.76 1167.33L-211.457 1189.91C-261.549 1190.43 -314.259 1135.8 -312.365 1085.74C-304.127 867.987 -288.278 387.916 -289.736 383.542C-291.363 378.664 -247.277 367.457 -235.335 364.518C-233.355 364.031 -231.45 363.488 -229.506 362.872C-217.946 359.21 -174.181 345.972 -145.432 345.941C-145.11 345.941 -144.822 345.944 -144.5 345.95C-139.343 346.039 -92.2067 346.83 -90.4294 345.942C-88.5492 345.002 -30.2613 328.082 -21.8001 332.782C-14.9003 336.615 26.3842 342.948 41.3857 345.154C45.0146 345.688 48.587 346.485 52.1013 347.535C107.697 364.155 221.663 393.001 220.753 394.822C219.812 396.702 405.958 406.102 427.581 406.102C444.192 406.102 526.865 399.167 570.868 395.287C574.381 394.977 577.841 394.401 581.267 393.564L822.466 334.612C827.444 333.396 832.272 331.636 836.866 329.366L913.626 291.422L982.255 258.522L1047.92 236.419C1066.16 230.281 1086.27 233.896 1101.23 246.002C1111.23 254.102 1123.72 258.522 1136.59 258.522H1201.23C1208.75 258.522 1216.22 257.309 1223.36 254.931L1292.94 231.741C1303.16 228.334 1314.03 227.333 1324.7 228.815L1410.01 240.662H1509.65C1521.98 240.662 1534.09 237.406 1544.75 231.224L1586.38 207.095C1591 204.415 1595.3 201.22 1599.21 197.575C1614.76 183.064 1656.1 144.782 1659.15 144.782C1662.91 144.782 1783.24 105.302 1787.94 101.542C1792.64 97.7825 1898.38 109.864 1899.82 101.542Z" fill="#225372"/>
</g>
<path d="M1899.82 124.542C1900.5 120.628 1918.64 124.764 1937.66 130.243C1964.56 137.992 1982.86 162.389 1984.8 190.317L2048.87 1115.49C2051.65 1155.67 2020.04 1189.91 1979.76 1190.33L-211.457 1212.91C-261.549 1213.43 -314.259 1158.8 -312.365 1108.74C-304.127 890.987 -288.278 410.916 -289.736 406.542C-291.363 401.664 -247.277 390.457 -235.335 387.518C-233.355 387.031 -231.45 386.488 -229.506 385.872C-217.946 382.21 -174.181 368.972 -145.432 368.941C-145.11 368.941 -144.822 368.944 -144.5 368.95C-139.343 369.039 -92.2067 369.83 -90.4294 368.942C-88.5492 368.002 -30.2613 351.082 -21.8001 355.782C-14.9003 359.615 26.3842 365.948 41.3857 368.154C45.0146 368.688 48.587 369.485 52.1013 370.535C107.697 387.155 221.663 416.001 220.753 417.822C219.812 419.702 405.958 429.102 427.581 429.102C444.192 429.102 526.865 422.167 570.868 418.287C574.381 417.977 577.841 417.401 581.267 416.564L822.466 357.612C827.444 356.396 832.272 354.636 836.866 352.366L913.626 314.422L982.255 281.522L1047.92 259.419C1066.16 253.281 1086.27 256.896 1101.23 269.002C1111.23 277.102 1123.72 281.522 1136.59 281.522H1201.23C1208.75 281.522 1216.22 280.309 1223.36 277.931L1292.94 254.741C1303.16 251.334 1314.03 250.333 1324.7 251.815L1410.01 263.662H1509.65C1521.98 263.662 1534.09 260.406 1544.75 254.224L1586.38 230.095C1591 227.415 1595.3 224.22 1599.21 220.575C1614.76 206.064 1656.1 167.782 1659.15 167.782C1662.91 167.782 1783.24 128.302 1787.94 124.542C1792.64 120.783 1898.38 132.864 1899.82 124.542Z" fill="#153346"/>
<path d="M146.737 401.939C87.6417 413.908 50.0957 424.575 27.5764 432.69C8.57349 439.538 -12.4384 446.5 -32.6376 446.5H-41.0489C-80.8422 446.5 -112.632 479.63 -110.989 519.389L-92.1743 974.889C-90.6251 1012.39 -59.7701 1042 -22.2339 1042H1867.82C1905.36 1042 1936.22 1012.38 1937.76 974.873L1963.68 343.83C1965.43 301.203 1928.97 266.937 1886.53 271.329L1834.37 276.728C1821.37 278.074 1808.24 275.749 1796.49 270.017L1785.81 264.813C1764.33 254.339 1739 255.545 1718.61 268.011L1583.26 350.777C1573.56 356.708 1562.64 360.185 1551.29 360.901C1420.15 369.168 1185.21 382.593 1173.29 377.633C1160.82 372.447 961.472 344.684 863.354 331.451L662.472 300.663L523.975 269.029C508.034 265.387 491.353 267.471 476.665 274.656C394.517 314.836 242.65 382.513 146.737 401.939Z" fill="#102D40"/>
<path d="M1532.83 248C1532.83 246.963 1532.55 245.944 1532.03 245.047L1531.82 244.684C1532.26 244.58 1532.71 244.515 1533.15 244.489C1533.75 244.027 1534.65 243.478 1535.68 243.304L1536.31 243.188L1535.95 244.879C1537.09 245.266 1538.09 246.051 1538.76 246.591C1538.89 246.484 1539.02 246.378 1539.16 246.275C1540.25 245.482 1541.42 245.406 1541.47 245.403L1542 245.375L1541.93 245.903C1541.92 245.958 1541.74 247.126 1541.06 247.995C1541.74 248.865 1541.92 250.032 1541.93 250.088L1542 250.625L1541.47 250.588C1541.42 250.585 1540.25 250.509 1539.16 249.716C1539.02 249.615 1538.89 249.511 1538.76 249.405C1538.1 249.947 1537.09 250.734 1535.95 251.12L1536.31 252.812L1535.68 252.697C1534.65 252.524 1533.76 251.975 1533.16 251.513C1532.71 251.486 1532.26 251.42 1531.81 251.315L1532.03 250.954C1532.55 250.057 1532.83 249.038 1532.83 248Z" fill="#153346"/>
<path d="M1528.34 247.063C1528.5 246.793 1528.79 246.383 1529.27 245.962C1529.78 245.529 1530.35 245.187 1530.97 244.95L1531.28 245.484C1531.72 246.248 1531.95 247.115 1531.95 247.998C1531.95 248.881 1531.72 249.748 1531.28 250.512L1530.96 251.047C1530.34 250.813 1529.78 250.476 1529.28 250.049C1528.41 249.298 1528 248.355 1528 248C1528 247.663 1528.22 247.269 1528.34 247.063ZM1530.63 248C1530.71 248 1530.8 247.974 1530.87 247.926C1530.94 247.878 1531 247.81 1531.03 247.73C1531.06 247.65 1531.07 247.562 1531.05 247.477C1531.04 247.392 1531 247.314 1530.93 247.253C1530.87 247.192 1530.8 247.15 1530.71 247.133C1530.63 247.116 1530.54 247.125 1530.46 247.158C1530.38 247.191 1530.31 247.247 1530.26 247.319C1530.21 247.391 1530.19 247.476 1530.19 247.562C1530.19 247.678 1530.23 247.79 1530.32 247.872C1530.4 247.954 1530.51 248 1530.63 248Z" fill="#153346"/>
<path d="M1500.38 333.5C1500.38 331.796 1499.73 330.122 1498.5 328.648L1498.01 328.053C1499.04 327.882 1500.09 327.775 1501.15 327.732C1502.56 326.972 1504.67 326.072 1507.1 325.785L1508.59 325.594L1507.73 328.373C1510.42 329.008 1512.79 330.298 1514.36 331.186C1514.66 331.009 1514.98 330.836 1515.31 330.667C1517.87 329.364 1520.63 329.238 1520.75 329.234L1522 329.188L1521.83 330.055C1521.81 330.145 1521.39 332.064 1519.79 333.492C1521.39 334.921 1521.81 336.839 1521.83 336.93L1522 337.812L1520.75 337.751C1520.63 337.747 1517.87 337.622 1515.31 336.318C1514.98 336.153 1514.67 335.983 1514.37 335.808C1512.8 336.698 1510.43 337.991 1507.74 338.626L1508.59 341.406L1507.1 341.217C1504.68 340.932 1502.58 340.031 1501.17 339.271C1500.1 339.227 1499.04 339.119 1497.99 338.946L1498.5 338.354C1499.73 336.88 1500.38 335.205 1500.38 333.5Z" fill="#102D40"/>
<path d="M1489.8 331.961C1490.18 331.518 1490.87 330.843 1492 330.152C1493.19 329.441 1494.54 328.879 1496 328.49L1496.72 329.367C1497.76 330.622 1498.32 332.046 1498.32 333.497C1498.32 334.947 1497.77 336.372 1496.73 337.627L1495.97 338.506C1494.52 338.122 1493.18 337.567 1492.01 336.867C1489.96 335.632 1489 334.084 1489 333.5C1489 332.947 1489.52 332.299 1489.8 331.961ZM1495.19 333.5C1495.39 333.5 1495.59 333.458 1495.76 333.379C1495.93 333.3 1496.06 333.188 1496.14 333.056C1496.22 332.925 1496.24 332.78 1496.2 332.641C1496.16 332.502 1496.06 332.374 1495.92 332.273C1495.77 332.173 1495.59 332.104 1495.39 332.076C1495.19 332.049 1494.98 332.063 1494.79 332.117C1494.6 332.172 1494.44 332.264 1494.33 332.382C1494.22 332.5 1494.16 332.639 1494.16 332.781C1494.16 332.972 1494.26 333.155 1494.46 333.289C1494.65 333.424 1494.91 333.5 1495.19 333.5Z" fill="#102D40"/>
<path d="M1538.62 310.5C1538.62 309.389 1538.13 308.297 1537.2 307.336L1536.83 306.947C1537.61 306.836 1538.4 306.766 1539.2 306.738C1540.27 306.243 1541.87 305.655 1543.71 305.469L1544.84 305.344L1544.19 307.156C1546.23 307.57 1548.02 308.412 1549.21 308.991C1549.44 308.875 1549.68 308.762 1549.93 308.652C1551.87 307.803 1553.96 307.721 1554.05 307.718L1555 307.688L1554.87 308.253C1554.86 308.312 1554.54 309.564 1553.32 310.495C1554.54 311.427 1554.85 312.678 1554.87 312.737L1555 313.312L1554.05 313.273C1553.96 313.27 1551.87 313.188 1549.93 312.338C1549.68 312.23 1549.45 312.119 1549.22 312.005C1548.03 312.586 1546.23 313.429 1544.2 313.843L1544.84 315.656L1543.71 315.533C1541.88 315.347 1540.29 314.759 1539.22 314.263C1538.41 314.235 1537.6 314.164 1536.81 314.052L1537.2 313.666C1538.13 312.704 1538.62 311.612 1538.62 310.5Z" fill="#102D40"/>
<path d="M1530.61 309.497C1530.89 309.207 1531.41 308.767 1532.28 308.317C1533.17 307.853 1534.2 307.486 1535.3 307.233L1535.85 307.805C1536.64 308.623 1537.06 309.552 1537.06 310.498C1537.06 311.444 1536.64 312.373 1535.85 313.192L1535.28 313.765C1534.18 313.514 1533.17 313.153 1532.28 312.696C1530.73 311.891 1530 310.881 1530 310.5C1530 310.139 1530.39 309.717 1530.61 309.497ZM1534.69 310.5C1534.84 310.5 1534.99 310.473 1535.12 310.421C1535.25 310.37 1535.35 310.296 1535.41 310.211C1535.47 310.125 1535.48 310.031 1535.45 309.94C1535.42 309.849 1535.35 309.765 1535.24 309.7C1535.13 309.634 1534.99 309.59 1534.84 309.572C1534.69 309.553 1534.53 309.563 1534.39 309.598C1534.25 309.634 1534.12 309.694 1534.04 309.771C1533.95 309.848 1533.91 309.939 1533.91 310.031C1533.91 310.156 1533.99 310.275 1534.14 310.363C1534.28 310.451 1534.48 310.5 1534.69 310.5Z" fill="#102D40"/>
<path d="M85.7932 373.5C85.7927 372.537 86.1455 371.591 86.8155 370.758L87.0834 370.421C86.5218 370.325 85.9497 370.264 85.3734 370.24C84.6021 369.81 83.4525 369.301 82.1271 369.139L81.3125 369.031L81.7825 370.602C80.3176 370.961 79.0252 371.69 78.1699 372.192C78.0044 372.092 77.8312 371.994 77.6503 371.899C76.2542 371.162 74.7464 371.091 74.6831 371.089L74 371.062L74.0939 371.553C74.1041 371.604 74.3326 372.689 75.2066 373.496C74.3326 374.303 74.1055 375.387 74.0939 375.439L74 375.938L74.6831 375.903C74.7464 375.9 76.2542 375.83 77.6503 375.093C77.8279 374.999 77.9986 374.903 78.1621 374.804C79.0189 375.308 80.3116 376.038 81.7783 376.397L81.3125 377.969L82.1271 377.862C83.4451 377.701 84.5908 377.191 85.3614 376.762C85.9457 376.737 86.5259 376.676 87.0954 376.578L86.8173 376.243C86.1464 375.41 85.7931 374.464 85.7932 373.5Z" fill="#102D40"/>
<path d="M85.7932 373.5C85.7927 372.537 86.1455 371.591 86.8155 370.758L87.0834 370.421C86.5218 370.325 85.9497 370.264 85.3734 370.24C84.6021 369.81 83.4525 369.301 82.1271 369.139L81.3125 369.031L81.7825 370.602C80.3176 370.961 79.0252 371.69 78.1699 372.192C78.0044 372.092 77.8312 371.994 77.6503 371.899C76.2542 371.162 74.7464 371.091 74.6831 371.089L74 371.062L74.0939 371.553C74.1041 371.604 74.3326 372.689 75.2066 373.496C74.3326 374.303 74.1055 375.387 74.0939 375.439L74 375.938L74.6831 375.903C74.7464 375.9 76.2542 375.83 77.6503 375.093C77.8279 374.999 77.9986 374.903 78.1621 374.804C79.0189 375.308 80.3116 376.038 81.7783 376.397L81.3125 377.969L82.1271 377.862C83.4451 377.701 84.5908 377.191 85.3614 376.762C85.9457 376.737 86.5259 376.676 87.0954 376.578L86.8173 376.243C86.1464 375.41 85.7931 374.464 85.7932 373.5Z" fill="#102D40"/>
<path d="M91.5635 372.63C91.3578 372.38 90.982 371.998 90.3615 371.608C89.7156 371.206 88.9781 370.888 88.1818 370.668L87.7891 371.164C87.2191 371.873 86.9185 372.678 86.918 373.498C86.9174 374.318 87.2169 375.123 87.786 375.833L88.1991 376.33C88.987 376.112 89.7174 375.799 90.3584 375.403C91.4742 374.705 91.9998 373.83 91.9998 373.5C91.9998 373.187 91.7186 372.821 91.5635 372.63ZM88.6248 373.5C88.5136 373.5 88.4048 373.476 88.3123 373.432C88.2198 373.387 88.1477 373.323 88.1051 373.249C88.0625 373.175 88.0514 373.093 88.0731 373.015C88.0948 372.936 88.1484 372.863 88.2271 372.807C88.3057 372.75 88.4059 372.711 88.5151 372.695C88.6242 372.68 88.7373 372.688 88.8401 372.718C88.9428 372.749 89.0307 372.801 89.0925 372.868C89.1543 372.935 89.1873 373.013 89.1873 373.094C89.1873 373.202 89.128 373.305 89.0226 373.381C88.9171 373.457 88.774 373.5 88.6248 373.5Z" fill="#102D40"/>
<path d="M105.172 386C105.172 385.407 105.446 384.825 105.968 384.312L106.176 384.105C105.739 384.046 105.294 384.009 104.846 383.994C104.246 383.73 103.352 383.416 102.321 383.317L101.688 383.25L102.053 384.217C100.914 384.438 99.9085 384.886 99.2432 385.195C99.1145 385.133 98.9798 385.073 98.8391 385.015C97.7533 384.561 96.5805 384.518 96.5313 384.516L96 384.5L96.073 384.802C96.0809 384.833 96.2587 385.501 96.9384 385.997C96.2587 386.494 96.082 387.161 96.073 387.193L96 387.5L96.5313 387.479C96.5805 387.477 97.7533 387.434 98.8391 386.98C98.9773 386.923 99.11 386.863 99.2372 386.803C99.9036 387.112 100.909 387.562 102.05 387.783L101.688 388.75L102.321 388.684C103.346 388.585 104.237 388.272 104.837 388.007C105.291 387.992 105.742 387.954 106.185 387.894L105.969 387.688C105.447 387.176 105.172 386.593 105.172 386Z" fill="#102D40"/>
<path d="M109.661 385.465C109.501 385.31 109.208 385.076 108.726 384.835C108.223 384.588 107.65 384.393 107.03 384.257L106.725 384.562C106.282 384.999 106.048 385.494 106.047 385.999C106.047 386.503 106.28 386.999 106.722 387.435L107.044 387.741C107.657 387.608 108.225 387.415 108.723 387.171C109.591 386.742 110 386.203 110 386C110 385.808 109.781 385.582 109.661 385.465ZM107.375 386C107.288 386 107.204 385.985 107.132 385.958C107.06 385.93 107.004 385.891 106.971 385.846C106.938 385.8 106.929 385.75 106.946 385.701C106.963 385.653 107.004 385.608 107.066 385.573C107.127 385.538 107.205 385.514 107.29 385.505C107.374 385.495 107.462 385.5 107.542 385.519C107.622 385.538 107.691 385.57 107.739 385.611C107.787 385.652 107.812 385.701 107.812 385.75C107.812 385.816 107.766 385.88 107.684 385.927C107.602 385.974 107.491 386 107.375 386Z" fill="#102D40"/>
<path d="M1316.07 413.5C1316.07 411.648 1315.38 409.828 1314.08 408.227L1313.56 407.579C1314.65 407.393 1315.76 407.277 1316.89 407.23C1318.38 406.405 1320.62 405.426 1323.2 405.114L1324.78 404.906L1323.87 407.927C1326.72 408.617 1329.23 410.02 1330.89 410.984C1331.21 410.792 1331.55 410.604 1331.9 410.42C1334.62 409.004 1337.55 408.868 1337.67 408.863L1339 408.812L1338.82 409.755C1338.8 409.853 1338.35 411.939 1336.65 413.492C1338.35 415.044 1338.79 417.129 1338.82 417.229L1339 418.188L1337.67 418.121C1337.55 418.116 1334.62 417.98 1331.9 416.563C1331.56 416.383 1331.23 416.198 1330.91 416.008C1329.24 416.977 1326.73 418.381 1323.88 419.072L1324.78 422.094L1323.2 421.888C1320.63 421.578 1318.41 420.599 1316.91 419.772C1315.77 419.726 1314.64 419.607 1313.54 419.419L1314.08 418.776C1315.38 417.174 1316.07 415.353 1316.07 413.5Z" fill="#102D40"/>
<path d="M1304.85 411.828C1305.25 411.345 1305.98 410.612 1307.19 409.861C1308.44 409.088 1309.88 408.477 1311.42 408.054L1312.19 409.008C1313.3 410.371 1313.88 411.92 1313.88 413.496C1313.88 415.073 1313.3 416.622 1312.19 417.986L1311.39 418.941C1309.86 418.524 1308.44 417.921 1307.19 417.16C1305.02 415.818 1304 414.135 1304 413.5C1304 412.899 1304.55 412.194 1304.85 411.828ZM1310.56 413.5C1310.78 413.5 1310.99 413.454 1311.17 413.368C1311.35 413.282 1311.49 413.16 1311.57 413.018C1311.66 412.875 1311.68 412.718 1311.64 412.566C1311.59 412.415 1311.49 412.276 1311.34 412.166C1311.18 412.057 1310.99 411.983 1310.78 411.953C1310.56 411.922 1310.34 411.938 1310.14 411.997C1309.94 412.056 1309.77 412.156 1309.65 412.285C1309.53 412.413 1309.47 412.564 1309.47 412.719C1309.47 412.926 1309.58 413.125 1309.79 413.271C1309.99 413.418 1310.27 413.5 1310.56 413.5Z" fill="#102D40"/>
<path d="M1357.31 389C1357.31 387.814 1356.78 386.65 1355.78 385.625L1355.37 385.211C1356.22 385.092 1357.08 385.017 1357.94 384.987C1359.1 384.459 1360.82 383.833 1362.81 383.633L1364.03 383.5L1363.33 385.433C1365.52 385.875 1367.46 386.772 1368.75 387.39C1368.99 387.267 1369.25 387.147 1369.52 387.029C1371.62 386.123 1373.88 386.035 1373.98 386.032L1375 386L1374.86 386.603C1374.84 386.666 1374.5 388.001 1373.19 388.995C1374.5 389.988 1374.84 391.323 1374.86 391.386L1375 392L1373.98 391.958C1373.88 391.954 1371.62 391.867 1369.52 390.961C1369.26 390.845 1369 390.727 1368.76 390.605C1367.47 391.225 1365.53 392.124 1363.33 392.566L1364.03 394.5L1362.81 394.368C1360.83 394.17 1359.11 393.543 1357.96 393.014C1357.08 392.984 1356.21 392.909 1355.36 392.788L1355.77 392.377C1356.78 391.351 1357.31 390.186 1357.31 389Z" fill="#102D40"/>
<path d="M1348.65 387.93C1348.96 387.621 1349.53 387.152 1350.46 386.671C1351.43 386.176 1352.53 385.785 1353.73 385.515L1354.32 386.125C1355.17 386.998 1355.62 387.989 1355.62 388.998C1355.62 390.007 1355.17 390.998 1354.32 391.871L1353.7 392.482C1352.52 392.215 1351.42 391.829 1350.46 391.342C1348.79 390.483 1348 389.406 1348 389C1348 388.615 1348.42 388.164 1348.65 387.93ZM1353.06 389C1353.23 389 1353.39 388.971 1353.53 388.916C1353.67 388.861 1353.78 388.783 1353.84 388.691C1353.91 388.6 1353.92 388.499 1353.89 388.402C1353.86 388.305 1353.78 388.216 1353.66 388.146C1353.54 388.076 1353.39 388.029 1353.23 388.01C1353.06 387.99 1352.89 388 1352.74 388.038C1352.59 388.076 1352.45 388.14 1352.36 388.222C1352.27 388.304 1352.22 388.401 1352.22 388.5C1352.22 388.633 1352.31 388.76 1352.47 388.854C1352.62 388.947 1352.84 389 1353.06 389Z" fill="#102D40"/>
<path d="M1699.62 138C1699.62 136.666 1699.13 135.356 1698.2 134.203L1697.83 133.737C1698.61 133.603 1699.4 133.519 1700.2 133.486C1701.27 132.891 1702.87 132.187 1704.71 131.962L1705.84 131.812L1705.19 133.987C1707.23 134.484 1709.02 135.494 1710.21 136.189C1710.44 136.05 1710.68 135.915 1710.93 135.783C1712.87 134.763 1714.96 134.665 1715.05 134.661L1716 134.625L1715.87 135.304C1715.86 135.374 1715.54 136.876 1714.32 137.994C1715.54 139.112 1715.85 140.613 1715.87 140.685L1716 141.375L1715.05 141.327C1714.96 141.324 1712.87 141.226 1710.93 140.206C1710.68 140.076 1710.45 139.943 1710.22 139.806C1709.03 140.503 1707.23 141.515 1705.2 142.012L1705.84 144.188L1704.71 144.039C1702.88 143.816 1701.29 143.111 1700.22 142.516C1699.41 142.482 1698.6 142.397 1697.81 142.262L1698.2 141.799C1699.13 140.645 1699.62 139.334 1699.62 138Z" fill="#153346"/>
<path d="M1691.61 136.796C1691.89 136.449 1692.41 135.92 1693.28 135.38C1694.17 134.823 1695.2 134.383 1696.3 134.079L1696.85 134.766C1697.64 135.747 1698.06 136.862 1698.06 137.997C1698.06 139.132 1697.64 140.248 1696.85 141.23L1696.28 141.918C1695.18 141.617 1694.17 141.183 1693.28 140.635C1691.73 139.669 1691 138.457 1691 138C1691 137.567 1691.39 137.06 1691.61 136.796ZM1695.69 138C1695.84 138 1695.99 137.967 1696.12 137.905C1696.25 137.843 1696.35 137.755 1696.41 137.653C1696.47 137.55 1696.48 137.437 1696.45 137.328C1696.42 137.219 1696.35 137.118 1696.24 137.04C1696.13 136.961 1695.99 136.907 1695.84 136.886C1695.69 136.864 1695.53 136.875 1695.39 136.918C1695.25 136.96 1695.12 137.032 1695.04 137.125C1694.95 137.217 1694.91 137.326 1694.91 137.437C1694.91 137.587 1694.99 137.73 1695.14 137.835C1695.28 137.941 1695.48 138 1695.69 138Z" fill="#153346"/>
<path d="M1718.31 163C1718.31 161.666 1717.78 160.356 1716.78 159.203L1716.37 158.737C1717.22 158.603 1718.08 158.519 1718.94 158.486C1720.1 157.891 1721.82 157.187 1723.81 156.962L1725.03 156.812L1724.33 158.987C1726.52 159.484 1728.46 160.494 1729.75 161.189C1729.99 161.05 1730.25 160.915 1730.52 160.783C1732.62 159.763 1734.88 159.665 1734.98 159.661L1736 159.625L1735.86 160.304C1735.84 160.374 1735.5 161.876 1734.19 162.994C1735.5 164.112 1735.84 165.613 1735.86 165.685L1736 166.375L1734.98 166.327C1734.88 166.324 1732.62 166.226 1730.52 165.206C1730.26 165.076 1730 164.943 1729.76 164.806C1728.47 165.503 1726.53 166.515 1724.33 167.012L1725.03 169.188L1723.81 169.039C1721.83 168.816 1720.11 168.111 1718.96 167.516C1718.08 167.482 1717.21 167.397 1716.36 167.262L1716.77 166.799C1717.78 165.645 1718.31 164.334 1718.31 163Z" fill="#0A283B"/>
<path d="M1709.65 161.796C1709.96 161.449 1710.53 160.92 1711.46 160.38C1712.43 159.823 1713.53 159.383 1714.73 159.079L1715.32 159.766C1716.17 160.747 1716.62 161.862 1716.62 162.997C1716.62 164.132 1716.17 165.248 1715.32 166.23L1714.7 166.918C1713.52 166.617 1712.42 166.183 1711.46 165.635C1709.79 164.669 1709 163.457 1709 163C1709 162.567 1709.42 162.06 1709.65 161.796ZM1714.06 163C1714.23 163 1714.39 162.967 1714.53 162.905C1714.67 162.843 1714.78 162.755 1714.84 162.653C1714.91 162.55 1714.92 162.437 1714.89 162.328C1714.86 162.219 1714.78 162.118 1714.66 162.04C1714.54 161.961 1714.39 161.907 1714.23 161.886C1714.06 161.864 1713.89 161.875 1713.74 161.918C1713.59 161.96 1713.45 162.032 1713.36 162.125C1713.27 162.217 1713.22 162.326 1713.22 162.437C1713.22 162.587 1713.31 162.73 1713.47 162.835C1713.62 162.941 1713.84 163 1714.06 163Z" fill="#0A283B"/>
<path d="M1501.1 237.5C1501.1 236.833 1500.93 236.178 1500.59 235.602L1500.46 235.368C1500.74 235.302 1501.03 235.26 1501.31 235.243C1501.7 234.946 1502.27 234.593 1502.94 234.481L1503.34 234.406L1503.11 235.494C1503.84 235.742 1504.49 236.247 1504.92 236.594C1505 236.525 1505.08 236.457 1505.17 236.391C1505.87 235.882 1506.63 235.832 1506.66 235.831L1507 235.812L1506.95 236.152C1506.95 236.187 1506.83 236.938 1506.4 237.497C1506.83 238.056 1506.95 238.807 1506.95 238.842L1507 239.188L1506.66 239.164C1506.63 239.162 1505.87 239.113 1505.17 238.603C1505.09 238.538 1505 238.471 1504.92 238.403C1504.49 238.752 1503.84 239.257 1503.11 239.506L1503.34 240.594L1502.94 240.52C1502.28 240.408 1501.7 240.056 1501.32 239.758C1501.03 239.741 1500.74 239.699 1500.45 239.631L1500.59 239.399C1500.93 238.823 1501.1 238.167 1501.1 237.5Z" fill="#153346"/>
<path d="M1498.22 236.898C1498.32 236.724 1498.51 236.46 1498.82 236.19C1499.14 235.912 1499.51 235.692 1499.91 235.54L1500.11 235.883C1500.39 236.374 1500.54 236.931 1500.54 237.499C1500.54 238.066 1500.39 238.624 1500.11 239.115L1499.9 239.459C1499.51 239.309 1499.14 239.092 1498.82 238.818C1498.26 238.334 1498 237.729 1498 237.5C1498 237.284 1498.14 237.03 1498.22 236.898ZM1499.69 237.5C1499.74 237.5 1499.8 237.484 1499.84 237.453C1499.89 237.422 1499.93 237.378 1499.95 237.326C1499.97 237.275 1499.97 237.218 1499.96 237.164C1499.95 237.109 1499.93 237.059 1499.89 237.02C1499.85 236.981 1499.8 236.954 1499.74 236.943C1499.69 236.932 1499.63 236.938 1499.58 236.959C1499.53 236.98 1499.48 237.016 1499.45 237.063C1499.42 237.109 1499.41 237.163 1499.41 237.219C1499.41 237.293 1499.44 237.365 1499.49 237.418C1499.54 237.47 1499.61 237.5 1499.69 237.5Z" fill="#153346"/>
<path d="M1480.14 257C1480.14 256.111 1479.9 255.238 1479.46 254.469L1479.28 254.158C1479.65 254.069 1480.03 254.013 1480.42 253.99C1480.93 253.594 1481.7 253.124 1482.58 252.975L1483.12 252.875L1482.81 254.325C1483.79 254.656 1484.65 255.329 1485.22 255.793C1485.33 255.7 1485.45 255.61 1485.57 255.522C1486.5 254.842 1487.5 254.776 1487.54 254.774L1488 254.75L1487.94 255.203C1487.93 255.249 1487.78 256.251 1487.2 256.996C1487.78 257.741 1487.93 258.742 1487.94 258.79L1488 259.25L1487.54 259.218C1487.5 259.216 1486.5 259.15 1485.57 258.47C1485.45 258.384 1485.33 258.295 1485.23 258.204C1484.65 258.669 1483.79 259.343 1482.81 259.674L1483.12 261.125L1482.58 261.026C1481.7 260.877 1480.94 260.407 1480.43 260.011C1480.04 259.988 1479.65 259.932 1479.27 259.841L1479.46 259.532C1479.9 258.763 1480.14 257.89 1480.14 257Z" fill="#153346"/>
<path d="M1476.29 256.197C1476.43 255.966 1476.68 255.614 1477.09 255.253C1477.52 254.882 1478.01 254.589 1478.55 254.386L1478.81 254.844C1479.19 255.498 1479.39 256.241 1479.39 256.998C1479.39 257.755 1479.19 258.498 1478.81 259.153L1478.53 259.612C1478.01 259.411 1477.52 259.122 1477.09 258.757C1476.35 258.113 1476 257.305 1476 257C1476 256.711 1476.19 256.373 1476.29 256.197ZM1478.25 257C1478.32 257 1478.4 256.978 1478.46 256.937C1478.52 256.896 1478.57 256.837 1478.6 256.768C1478.62 256.7 1478.63 256.625 1478.62 256.552C1478.6 256.479 1478.57 256.412 1478.52 256.36C1478.46 256.307 1478.4 256.272 1478.32 256.257C1478.25 256.243 1478.18 256.25 1478.11 256.279C1478.04 256.307 1477.98 256.355 1477.94 256.417C1477.9 256.478 1477.88 256.551 1477.88 256.625C1477.88 256.724 1477.91 256.82 1477.98 256.89C1478.06 256.96 1478.15 257 1478.25 257Z" fill="#153346"/>
</g>
<defs>
<filter id="filter0_d_14_63" x="-316.415" y="6" width="2374.41" height="1214.92" filterUnits="userSpaceOnUse" color-interpolation-filters="sRGB">
<feFlood flood-opacity="0" result="BackgroundImageFix"/>
<feColorMatrix in="SourceAlpha" type="matrix" values="0 0 0 0 0 0 0 0 0 0 0 0 0 0 0 0 0 0 127 0" result="hardAlpha"/>
<feOffset dy="4"/>
<feGaussianBlur stdDeviation="2"/>
<feComposite in2="hardAlpha" operator="out"/>
<feColorMatrix type="matrix" values="0 0 0 0 0 0 0 0 0 0 0 0 0 0 0 0 0 0 0.25 0"/>
<feBlend mode="normal" in2="BackgroundImageFix" result="effect1_dropShadow_14_63"/>
<feBlend mode="normal" in="SourceGraphic" in2="effect1_dropShadow_14_63" result="shape"/>
</filter>
<filter id="filter1_f_14_63" x="-412.415" y="0" width="2561.46" height="1289.92" filterUnits="userSpaceOnUse" color-interpolation-filters="sRGB">
<feFlood flood-opacity="0" result="BackgroundImageFix"/>
<feBlend mode="normal" in="SourceGraphic" in2="BackgroundImageFix" result="shape"/>
<feGaussianBlur stdDeviation="50" result="effect1_foregroundBlur_14_63"/>
</filter>
</defs>
</svg>
