<svg width="1920" height="719" viewBox="0 0 1920 719" fill="none" xmlns="http://www.w3.org/2000/svg">
<g filter="url(#filter0_d_28_70)">
<path d="M16.0674 464.487L-52.6244 492.362C-74.9524 501.423 -91.0505 521.33 -95.2381 545.06L-178.5 1016.88C-186.064 1059.74 -153.091 1099.04 -109.565 1099.04H1984C2022.66 1099.04 2054 1067.7 2054 1029.04V545.205C2054 521.351 2041.85 499.139 2021.77 486.269L1940.33 434.078C1935.7 431.114 1930.75 428.705 1925.56 426.9L1912.39 422.321C1900.54 418.199 1887.8 417.338 1875.5 419.829L1827.18 429.617L1736.95 442.506C1733.67 442.974 1730.37 443.209 1727.05 443.209H1613.1C1564.96 448.589 1465.96 459.35 1455.08 459.35H1308.25C1300.27 459.35 1292.38 457.987 1284.86 455.318L968.304 342.965L895.109 324.666C889.557 323.278 883.855 322.576 878.132 322.576H840.358C831.716 322.576 823.148 324.177 815.089 327.296L794.667 335.202C781.598 340.26 767.312 341.28 753.657 338.129L744.797 336.084C735.327 333.899 725.506 333.71 715.959 335.528L687.647 340.921C680.536 342.275 673.75 344.902 667.025 347.581C653.316 353.044 635.636 356.341 631.891 342.965C628.089 329.387 603.78 332.989 585.063 338.597C576.594 341.135 567.884 342.965 559.043 342.965H524.851H490.87H459.437H434.488C421.368 342.965 408.513 346.652 397.388 353.605L385.405 361.094C382.095 363.163 378.617 364.951 375.009 366.441L326.911 386.291L294.892 397.592C287.408 400.233 279.53 401.582 271.594 401.582H258.382C244.889 401.582 231.683 405.482 220.355 412.812L211.74 418.387C200.412 425.717 187.206 429.617 173.712 429.617H161.722C153.544 429.617 145.429 431.05 137.745 433.851L79.4195 455.116C71.7359 457.917 63.6208 459.35 55.4425 459.35H42.3885C33.3657 459.35 24.428 461.094 16.0674 464.487Z" fill="#0A283B"/>
<path d="M1899.82 118.542C1900.5 114.628 1918.64 118.764 1937.66 124.243C1964.56 131.992 1982.86 156.389 1984.8 184.317L2048.87 1109.49C2051.65 1149.67 2020.04 1183.91 1979.76 1184.33L-211.457 1206.91C-261.549 1207.43 -314.259 1152.8 -312.365 1102.74C-304.127 884.987 -288.278 404.916 -289.736 400.542C-291.363 395.664 -247.277 384.457 -235.335 381.518C-233.355 381.031 -231.45 380.488 -229.506 379.872C-217.946 376.21 -174.181 362.972 -145.432 362.941C-145.11 362.941 -144.822 362.944 -144.5 362.95C-139.343 363.039 -92.2067 363.83 -90.4294 362.942C-88.5492 362.002 -30.2613 345.082 -21.8001 349.782C-14.9003 353.615 26.3842 359.948 41.3857 362.154C45.0146 362.688 48.587 363.485 52.1013 364.535C107.697 381.155 221.663 410.001 220.753 411.822C219.812 413.702 405.958 423.102 427.581 423.102C444.192 423.102 526.865 416.167 570.868 412.287C574.381 411.977 577.841 411.401 581.267 410.564L822.466 351.612C827.444 350.396 832.272 348.636 836.866 346.366L913.626 308.422L982.255 275.522L1047.92 253.419C1066.16 247.281 1086.27 250.896 1101.23 263.002C1111.23 271.102 1123.72 275.522 1136.59 275.522H1201.23C1208.75 275.522 1216.22 274.309 1223.36 271.931L1292.94 248.741C1303.16 245.334 1314.03 244.333 1324.7 245.815L1410.01 257.662H1509.65C1521.98 257.662 1534.09 254.406 1544.75 248.224L1586.38 224.095C1591 221.415 1595.3 218.22 1599.21 214.575C1614.76 200.064 1656.1 161.782 1659.15 161.782C1662.91 161.782 1783.24 122.302 1787.94 118.542C1792.64 114.783 1898.38 126.864 1899.82 118.542Z" fill="#153346"/>
<path d="M146.737 395.939C87.6417 407.908 50.0957 418.575 27.5764 426.69C8.57349 433.538 -12.4384 440.5 -32.6376 440.5H-41.0489C-80.8422 440.5 -112.632 473.63 -110.989 513.389L-92.1743 968.889C-90.6251 1006.39 -59.7701 1036 -22.2339 1036H1867.82C1905.36 1036 1936.22 1006.38 1937.76 968.873L1963.68 337.83C1965.43 295.203 1928.97 260.937 1886.53 265.329L1834.37 270.728C1821.37 272.074 1808.24 269.749 1796.49 264.017L1785.81 258.813C1764.33 248.339 1739 249.545 1718.61 262.011L1583.26 344.777C1573.56 350.708 1562.64 354.185 1551.29 354.901C1420.15 363.168 1185.21 376.593 1173.29 371.633C1160.82 366.447 961.472 338.684 863.354 325.451L662.472 294.663L523.975 263.029C508.034 259.387 491.353 261.471 476.665 268.656C394.517 308.836 242.65 376.513 146.737 395.939Z" fill="#102D40"/>
<path d="M422.275 340.844C421.027 339.239 419.721 334.3 420.704 332.334C422.211 329.319 426.533 330.239 429.318 330.239H429.449C433.066 330.238 434.974 330.238 436.859 333.8C441.609 342.771 455.552 337.438 460.556 331.181C461.855 329.558 463.471 327.98 464.903 326.468L464.948 326.421C465.813 325.508 466.582 324.696 467.286 323.64C468.074 322.459 469.325 322.413 470.114 321.493C472.263 318.986 476.394 317.57 479.331 316.361C483.526 314.633 489.399 316.782 493.863 315.995C496.699 315.494 500.077 313.743 502.844 313.743C505.913 313.743 505.909 307.939 505.908 305.75L505.908 305.625V300.52C505.908 297.788 507.322 295.314 507.322 292.429C507.322 282.779 508.736 273.6 508.736 264.018C508.736 261.744 509.678 260.225 509.678 258.127V253.414V248.439C509.678 246.811 508.795 245.484 508.736 243.883C508.638 241.237 507.215 239.485 506.144 237.127C505.331 235.34 505.318 231.74 502.609 231.262C499.869 230.778 498.641 227.355 499.336 224.925C499.706 223.627 500.723 222.951 500.723 221.364V217.358C500.723 213.013 504.532 214.631 506.274 211.938C507.066 210.714 505.967 209.726 506.353 208.376C506.799 206.817 506.85 205.49 506.85 203.82C506.85 202.451 507.054 200.949 506.484 199.683C505.635 197.796 504.023 194.868 504.023 192.823C504.023 189.122 503.701 185.29 504.494 181.721C505.72 176.203 507.322 170.101 507.322 164.544C507.322 162.986 505.908 162.52 505.908 161.244C505.908 159.486 504.965 158.459 504.965 156.793C504.965 155.56 504.642 154.123 505.698 153.258C506.923 152.256 508.622 152.24 508.736 150.195C508.968 146.021 508.736 141.752 508.736 137.574C508.736 133.024 509.837 126.672 508.474 122.387C507.112 118.106 507.793 113.106 507.793 108.614C507.793 106.791 507.808 104.828 508.998 103.298C509.581 102.548 510.149 102.351 510.988 102.015C511.816 101.684 511.301 100.728 512.035 100.339C513.352 99.6425 516.192 100.235 517.691 100.235C519.423 100.235 520.047 103.231 520.047 104.712C520.047 109.113 520.99 113.626 520.99 118.04C520.99 128.459 521.461 138.755 521.461 149.2C521.461 150.895 521.082 153.072 521.697 154.672C522.5 156.759 521.913 157.163 523.713 158.783C524.604 159.585 525.782 159.641 526.384 160.93C526.938 162.116 527.211 166.108 525.913 166.796C523.189 168.237 521.933 171.371 521.933 174.258C521.933 179.459 521.461 184.735 521.461 189.995C521.461 193.167 522.342 195.582 523.111 198.505C523.535 200.114 524.231 201.708 524.289 203.349C524.346 204.93 524.924 206.651 525.232 208.193C525.392 208.994 525.259 211.618 525.808 212.304C526.845 213.6 529.244 212.593 530.652 212.906C531.824 213.167 532.852 224.759 529.474 225.135C526.564 225.458 525.497 231.709 525.232 234.09C524.371 241.838 521.933 249.586 521.933 257.577C521.933 263.234 522.518 267.873 523.582 273.314C524.159 276.263 524.812 279.472 525.206 282.426C525.6 285.383 526.175 287.955 526.175 291.015C526.175 293.686 526.646 296.277 526.646 298.922C526.646 301.813 526.386 304.794 527.012 307.615C527.523 309.913 527.162 312.426 527.693 314.685C528.163 316.68 527.589 318.126 527.589 320.315C527.589 321.474 527.044 323.713 528.531 322.226C529.037 321.72 531.894 319.261 531.726 320.079C531.277 322.257 530.416 323.516 530.416 325.735C530.416 327.837 530.668 330.001 531.804 331.705C532.834 333.25 532.323 334.328 534.292 335.057C536.385 335.832 538.464 335.988 540.393 337.073C541.732 337.826 544.264 338.196 545.787 337.728C547.749 337.124 549.618 334.952 551.626 334.952C556.198 334.952 560.925 334.481 565.582 334.481C570.024 334.481 573.448 333.135 576.606 329.977C578.766 327.817 580.593 325.054 583.937 325.054C587.911 325.054 592.202 327.415 595.956 328.354C599.432 329.223 603.116 328.717 606.666 328.825C609.112 328.899 614.379 330.192 616.432 331.705C618.889 333.516 620.92 338.137 624 338.696C624.521 338.791 630.189 340.808 630.232 341.027C630.862 344.257 628.843 348.798 627.98 351.867C627.309 354.252 626.535 356.489 624.733 358.256C621.723 361.208 618.96 361.912 614.835 360.77C609.215 359.214 603.941 356.916 598.182 355.795C593.485 354.881 588.79 354.747 584.016 354.747C581.434 354.747 577.952 354.124 575.454 354.957C574.011 355.438 572.912 356.478 571.683 357.314C568.822 359.259 565.593 359.771 562.257 360.403C560.233 360.787 558.207 361.114 556.339 362.027C555.404 362.483 554.764 363.346 553.773 363.676C549.378 365.141 543.587 364.174 539.005 364.174C533.121 364.174 527.277 365.116 521.461 365.116C519.928 365.116 518.084 366.96 516.748 366.426C514.41 365.491 515.334 362.086 515.334 359.932C515.334 358.333 515.707 356.831 513.92 356.633C513.45 356.58 513.421 356.104 513.56 355.576C512.449 356.623 510.96 356.986 509.574 357.602C503.737 360.196 497.601 360.403 491.349 360.403H482.342C476.401 360.403 470.98 359.254 465.165 358.151C460.252 357.22 454.868 355.717 449.821 356.895C449.175 357.045 443.747 354.367 438.605 351.922C432.881 349.199 426.166 345.847 422.275 340.844Z" fill="#0A283B"/>
<rect x="1397" y="143" width="49" height="333" fill="#0A283B"/>
<rect x="1407" y="167" width="49" height="309" fill="#0A283B"/>
<rect x="1418" y="199" width="49" height="277" fill="#0A283B"/>
<path d="M1294.5 140H1318.5V504H1252L1294.5 175V140Z" fill="#0A2B41"/>
<path d="M1318.5 140H1353.5V504H1280.5L1318.5 200.5V140Z" fill="#0A283B"/>
<path d="M1286.5 457.5L1259.5 446.5L1252 504H1286.5V457.5Z" fill="#0A283B"/>
<path d="M1026.21 200.304C1031.93 190.771 1045.92 191.129 1051.43 200.787V200.787C1058.24 212.742 1063.46 225.759 1066.72 239.128L1070.31 253.795C1077.09 281.528 1081.06 309.872 1082.16 338.4L1087 463H985L993.427 334.679C995.139 308.611 999.166 282.748 1005.46 257.393L1009.75 240.114C1013.23 226.1 1018.78 212.683 1026.21 200.304V200.304Z" fill="#0A283B"/>
<rect x="216" y="191.398" width="94" height="333.602" fill="#0A283B"/>
<path d="M246.5 140L270 182.67V199.156H220L246.5 140Z" fill="#0A283B"/>
<path d="M1743 133.716C1743 132.604 1742.63 131.523 1741.95 130.646L1736 123H1779L1773.05 130.646C1772.37 131.524 1772 132.604 1772 133.716V493H1743V133.716Z" fill="#0A283B"/>
<path d="M1792 69C1792 107.108 1776.55 138 1757.5 138C1738.45 138 1723 107.108 1723 69C1723 30.8924 1740.5 9.5 1757.5 0C1776 10 1792 30.8924 1792 69Z" fill="#0A283B"/>
<path d="M0 124H76.5813C79.5009 124 81.7995 126.491 81.5652 129.401L72.5 242.012L69 525H0V124Z" fill="#0A283B"/>
<path d="M1532.83 242C1532.83 240.963 1532.55 239.944 1532.03 239.047L1531.82 238.684C1532.26 238.58 1532.71 238.515 1533.15 238.489C1533.75 238.027 1534.65 237.478 1535.68 237.304L1536.31 237.188L1535.95 238.879C1537.09 239.266 1538.09 240.051 1538.76 240.591C1538.89 240.484 1539.02 240.378 1539.16 240.275C1540.25 239.482 1541.42 239.406 1541.47 239.403L1542 239.375L1541.93 239.903C1541.92 239.958 1541.74 241.126 1541.06 241.995C1541.74 242.865 1541.92 244.032 1541.93 244.088L1542 244.625L1541.47 244.588C1541.42 244.585 1540.25 244.509 1539.16 243.716C1539.02 243.615 1538.89 243.511 1538.76 243.405C1538.1 243.947 1537.09 244.734 1535.95 245.12L1536.31 246.812L1535.68 246.697C1534.65 246.524 1533.76 245.975 1533.16 245.513C1532.71 245.486 1532.26 245.42 1531.81 245.315L1532.03 244.954C1532.55 244.057 1532.83 243.038 1532.83 242Z" fill="#153346"/>
<path d="M1528.34 241.064C1528.5 240.793 1528.79 240.383 1529.27 239.962C1529.78 239.529 1530.35 239.187 1530.97 238.95L1531.28 239.484C1531.72 240.248 1531.95 241.115 1531.95 241.998C1531.95 242.881 1531.72 243.748 1531.28 244.512L1530.96 245.047C1530.34 244.813 1529.78 244.476 1529.28 244.05C1528.41 243.298 1528 242.356 1528 242C1528 241.663 1528.22 241.269 1528.34 241.064ZM1530.63 242C1530.71 242 1530.8 241.974 1530.87 241.926C1530.94 241.878 1531 241.81 1531.03 241.73C1531.06 241.65 1531.07 241.562 1531.05 241.477C1531.04 241.392 1531 241.314 1530.93 241.253C1530.87 241.192 1530.8 241.15 1530.71 241.133C1530.63 241.117 1530.54 241.125 1530.46 241.158C1530.38 241.192 1530.31 241.248 1530.26 241.32C1530.21 241.391 1530.19 241.476 1530.19 241.563C1530.19 241.679 1530.23 241.79 1530.32 241.872C1530.4 241.954 1530.51 242 1530.63 242Z" fill="#153346"/>
<path d="M1500.38 327.5C1500.38 325.796 1499.73 324.122 1498.5 322.648L1498.01 322.053C1499.04 321.882 1500.09 321.775 1501.15 321.732C1502.56 320.972 1504.67 320.072 1507.1 319.785L1508.59 319.594L1507.73 322.373C1510.42 323.008 1512.79 324.298 1514.36 325.186C1514.66 325.009 1514.98 324.836 1515.31 324.667C1517.87 323.364 1520.63 323.238 1520.75 323.234L1522 323.188L1521.83 324.055C1521.81 324.145 1521.39 326.064 1519.79 327.492C1521.39 328.921 1521.81 330.839 1521.83 330.93L1522 331.812L1520.75 331.751C1520.63 331.747 1517.87 331.622 1515.31 330.318C1514.98 330.153 1514.67 329.983 1514.37 329.808C1512.8 330.698 1510.43 331.991 1507.74 332.626L1508.59 335.406L1507.1 335.217C1504.68 334.932 1502.58 334.031 1501.17 333.271C1500.1 333.227 1499.04 333.119 1497.99 332.946L1498.5 332.354C1499.73 330.88 1500.38 329.205 1500.38 327.5Z" fill="#102D40"/>
<path d="M1489.8 325.961C1490.18 325.517 1490.87 324.843 1492 324.152C1493.19 323.441 1494.54 322.879 1496 322.49L1496.72 323.367C1497.76 324.621 1498.32 326.046 1498.32 327.496C1498.32 328.947 1497.77 330.372 1496.73 331.627L1495.97 332.506C1494.52 332.122 1493.18 331.567 1492.01 330.867C1489.96 329.632 1489 328.084 1489 327.5C1489 326.947 1489.52 326.299 1489.8 325.961ZM1495.19 327.5C1495.39 327.5 1495.59 327.458 1495.76 327.379C1495.93 327.3 1496.06 327.188 1496.14 327.056C1496.22 326.925 1496.24 326.78 1496.2 326.641C1496.16 326.501 1496.06 326.373 1495.92 326.273C1495.77 326.172 1495.59 326.104 1495.39 326.076C1495.19 326.048 1494.98 326.063 1494.79 326.117C1494.6 326.171 1494.44 326.264 1494.33 326.382C1494.22 326.5 1494.16 326.639 1494.16 326.781C1494.16 326.972 1494.26 327.155 1494.46 327.289C1494.65 327.424 1494.91 327.5 1495.19 327.5Z" fill="#102D40"/>
<path d="M1538.62 304.5C1538.62 303.389 1538.13 302.297 1537.2 301.336L1536.83 300.947C1537.61 300.836 1538.4 300.766 1539.2 300.738C1540.27 300.243 1541.87 299.655 1543.71 299.469L1544.84 299.344L1544.19 301.156C1546.23 301.57 1548.02 302.412 1549.21 302.991C1549.44 302.875 1549.68 302.762 1549.93 302.652C1551.87 301.803 1553.96 301.721 1554.05 301.718L1555 301.688L1554.87 302.253C1554.86 302.312 1554.54 303.564 1553.32 304.495C1554.54 305.427 1554.85 306.678 1554.87 306.737L1555 307.312L1554.05 307.273C1553.96 307.27 1551.87 307.188 1549.93 306.338C1549.68 306.23 1549.45 306.119 1549.22 306.005C1548.03 306.586 1546.23 307.429 1544.2 307.843L1544.84 309.656L1543.71 309.533C1541.88 309.347 1540.29 308.759 1539.22 308.263C1538.41 308.235 1537.6 308.164 1536.81 308.052L1537.2 307.666C1538.13 306.704 1538.62 305.612 1538.62 304.5Z" fill="#102D40"/>
<path d="M1530.61 303.496C1530.89 303.207 1531.41 302.767 1532.28 302.316C1533.17 301.853 1534.2 301.486 1535.3 301.232L1535.85 301.805C1536.64 302.623 1537.06 303.552 1537.06 304.498C1537.06 305.444 1536.64 306.373 1535.85 307.191L1535.28 307.765C1534.18 307.514 1533.17 307.153 1532.28 306.696C1530.73 305.891 1530 304.881 1530 304.5C1530 304.139 1530.39 303.717 1530.61 303.496ZM1534.69 304.5C1534.84 304.5 1534.99 304.472 1535.12 304.421C1535.25 304.369 1535.35 304.296 1535.41 304.211C1535.47 304.125 1535.48 304.031 1535.45 303.94C1535.42 303.849 1535.35 303.765 1535.24 303.7C1535.13 303.634 1534.99 303.589 1534.84 303.571C1534.69 303.553 1534.53 303.563 1534.39 303.598C1534.25 303.634 1534.12 303.694 1534.04 303.771C1533.95 303.848 1533.91 303.938 1533.91 304.031C1533.91 304.155 1533.99 304.275 1534.14 304.363C1534.28 304.451 1534.48 304.5 1534.69 304.5Z" fill="#102D40"/>
<path d="M85.7932 367.5C85.7927 366.537 86.1455 365.591 86.8155 364.758L87.0834 364.421C86.5218 364.325 85.9497 364.264 85.3734 364.24C84.6021 363.81 83.4525 363.301 82.1271 363.139L81.3125 363.031L81.7825 364.602C80.3176 364.961 79.0252 365.69 78.1699 366.192C78.0044 366.092 77.8312 365.994 77.6503 365.899C76.2542 365.162 74.7464 365.091 74.6831 365.089L74 365.062L74.0939 365.553C74.1041 365.604 74.3326 366.689 75.2066 367.496C74.3326 368.303 74.1055 369.387 74.0939 369.439L74 369.938L74.6831 369.903C74.7464 369.9 76.2542 369.83 77.6503 369.093C77.8279 368.999 77.9986 368.903 78.1621 368.804C79.0189 369.308 80.3116 370.038 81.7783 370.397L81.3125 371.969L82.1271 371.862C83.4451 371.701 84.5908 371.191 85.3614 370.762C85.9457 370.737 86.5259 370.676 87.0954 370.578L86.8173 370.243C86.1464 369.41 85.7931 368.464 85.7932 367.5Z" fill="#102D40"/>
<path d="M85.7932 367.5C85.7927 366.537 86.1455 365.591 86.8155 364.758L87.0834 364.421C86.5218 364.325 85.9497 364.264 85.3734 364.24C84.6021 363.81 83.4525 363.301 82.1271 363.139L81.3125 363.031L81.7825 364.602C80.3176 364.961 79.0252 365.69 78.1699 366.192C78.0044 366.092 77.8312 365.994 77.6503 365.899C76.2542 365.162 74.7464 365.091 74.6831 365.089L74 365.062L74.0939 365.553C74.1041 365.604 74.3326 366.689 75.2066 367.496C74.3326 368.303 74.1055 369.387 74.0939 369.439L74 369.938L74.6831 369.903C74.7464 369.9 76.2542 369.83 77.6503 369.093C77.8279 368.999 77.9986 368.903 78.1621 368.804C79.0189 369.308 80.3116 370.038 81.7783 370.397L81.3125 371.969L82.1271 371.862C83.4451 371.701 84.5908 371.191 85.3614 370.762C85.9457 370.737 86.5259 370.676 87.0954 370.578L86.8173 370.243C86.1464 369.41 85.7931 368.464 85.7932 367.5Z" fill="#102D40"/>
<path d="M91.5635 366.63C91.3578 366.379 90.982 365.998 90.3615 365.607C89.7156 365.206 88.9781 364.888 88.1818 364.668L87.7891 365.164C87.2191 365.873 86.9185 366.678 86.918 367.498C86.9174 368.318 87.2169 369.123 87.786 369.832L88.1991 370.329C88.987 370.112 89.7174 369.799 90.3584 369.403C91.4742 368.705 91.9998 367.83 91.9998 367.5C91.9998 367.187 91.7186 366.821 91.5635 366.63ZM88.6248 367.5C88.5136 367.5 88.4048 367.476 88.3123 367.431C88.2198 367.387 88.1477 367.323 88.1051 367.249C88.0625 367.175 88.0514 367.093 88.0731 367.014C88.0948 366.935 88.1484 366.863 88.2271 366.806C88.3057 366.749 88.4059 366.711 88.5151 366.695C88.6242 366.679 88.7373 366.687 88.8401 366.718C88.9428 366.749 89.0307 366.801 89.0925 366.868C89.1543 366.935 89.1873 367.013 89.1873 367.094C89.1873 367.201 89.128 367.305 89.0226 367.381C88.9171 367.457 88.774 367.5 88.6248 367.5Z" fill="#102D40"/>
<path d="M105.172 380C105.172 379.407 105.446 378.825 105.968 378.312L106.176 378.105C105.739 378.046 105.294 378.009 104.846 377.994C104.246 377.73 103.352 377.416 102.321 377.317L101.688 377.25L102.053 378.217C100.914 378.438 99.9085 378.886 99.2432 379.195C99.1145 379.133 98.9798 379.073 98.8391 379.015C97.7533 378.561 96.5805 378.518 96.5313 378.516L96 378.5L96.073 378.802C96.0809 378.833 96.2587 379.501 96.9384 379.997C96.2587 380.494 96.082 381.161 96.073 381.193L96 381.5L96.5313 381.479C96.5805 381.477 97.7533 381.434 98.8391 380.98C98.9773 380.923 99.11 380.863 99.2372 380.803C99.9036 381.112 100.909 381.562 102.05 381.783L101.688 382.75L102.321 382.684C103.346 382.585 104.237 382.272 104.837 382.007C105.291 381.992 105.742 381.954 106.185 381.894L105.969 381.688C105.447 381.176 105.172 380.593 105.172 380Z" fill="#102D40"/>
<path d="M109.661 379.465C109.501 379.31 109.208 379.076 108.726 378.835C108.223 378.588 107.65 378.393 107.03 378.257L106.725 378.562C106.282 378.999 106.048 379.494 106.047 379.999C106.047 380.503 106.28 380.999 106.722 381.435L107.044 381.741C107.657 381.608 108.225 381.415 108.723 381.171C109.591 380.742 110 380.203 110 380C110 379.808 109.781 379.582 109.661 379.465ZM107.375 380C107.288 380 107.204 379.985 107.132 379.958C107.06 379.93 107.004 379.891 106.971 379.846C106.938 379.8 106.929 379.75 106.946 379.701C106.963 379.653 107.004 379.608 107.066 379.573C107.127 379.538 107.205 379.514 107.29 379.505C107.374 379.495 107.462 379.5 107.542 379.519C107.622 379.538 107.691 379.57 107.739 379.611C107.787 379.652 107.812 379.701 107.812 379.75C107.812 379.816 107.766 379.88 107.684 379.927C107.602 379.974 107.491 380 107.375 380Z" fill="#102D40"/>
<path d="M1316.07 407.5C1316.07 405.648 1315.38 403.828 1314.08 402.227L1313.56 401.579C1314.65 401.393 1315.76 401.277 1316.89 401.23C1318.38 400.405 1320.62 399.426 1323.2 399.114L1324.78 398.906L1323.87 401.927C1326.72 402.617 1329.23 404.02 1330.89 404.984C1331.21 404.792 1331.55 404.604 1331.9 404.42C1334.62 403.004 1337.55 402.868 1337.67 402.863L1339 402.812L1338.82 403.755C1338.8 403.853 1338.35 405.939 1336.65 407.492C1338.35 409.044 1338.79 411.129 1338.82 411.229L1339 412.188L1337.67 412.121C1337.55 412.116 1334.62 411.98 1331.9 410.563C1331.56 410.383 1331.23 410.198 1330.91 410.008C1329.24 410.977 1326.73 412.381 1323.88 413.072L1324.78 416.094L1323.2 415.888C1320.63 415.578 1318.41 414.599 1316.91 413.772C1315.77 413.726 1314.64 413.607 1313.54 413.419L1314.08 412.776C1315.38 411.174 1316.07 409.353 1316.07 407.5Z" fill="#102D40"/>
<path d="M1304.85 405.828C1305.25 405.345 1305.98 404.612 1307.19 403.861C1308.44 403.088 1309.88 402.477 1311.42 402.054L1312.19 403.008C1313.3 404.371 1313.88 405.92 1313.88 407.496C1313.88 409.073 1313.3 410.622 1312.19 411.986L1311.39 412.941C1309.86 412.524 1308.44 411.921 1307.19 411.16C1305.02 409.818 1304 408.135 1304 407.5C1304 406.899 1304.55 406.194 1304.85 405.828ZM1310.56 407.5C1310.78 407.5 1310.99 407.454 1311.17 407.368C1311.35 407.282 1311.49 407.16 1311.57 407.018C1311.66 406.875 1311.68 406.718 1311.64 406.566C1311.59 406.415 1311.49 406.276 1311.34 406.166C1311.18 406.057 1310.99 405.983 1310.78 405.953C1310.56 405.922 1310.34 405.938 1310.14 405.997C1309.94 406.056 1309.77 406.156 1309.65 406.285C1309.53 406.413 1309.47 406.564 1309.47 406.719C1309.47 406.926 1309.58 407.125 1309.79 407.271C1309.99 407.418 1310.27 407.5 1310.56 407.5Z" fill="#102D40"/>
<path d="M1357.31 383C1357.31 381.814 1356.78 380.65 1355.78 379.625L1355.37 379.211C1356.22 379.092 1357.08 379.017 1357.94 378.987C1359.1 378.459 1360.82 377.833 1362.81 377.633L1364.03 377.5L1363.33 379.433C1365.52 379.875 1367.46 380.772 1368.75 381.39C1368.99 381.267 1369.25 381.147 1369.52 381.029C1371.62 380.123 1373.88 380.035 1373.98 380.032L1375 380L1374.86 380.603C1374.84 380.666 1374.5 382.001 1373.19 382.995C1374.5 383.988 1374.84 385.323 1374.86 385.386L1375 386L1373.98 385.958C1373.88 385.954 1371.62 385.867 1369.52 384.961C1369.26 384.845 1369 384.727 1368.76 384.605C1367.47 385.225 1365.53 386.124 1363.33 386.566L1364.03 388.5L1362.81 388.368C1360.83 388.17 1359.11 387.543 1357.96 387.014C1357.08 386.984 1356.21 386.909 1355.36 386.788L1355.77 386.377C1356.78 385.351 1357.31 384.186 1357.31 383Z" fill="#102D40"/>
<path d="M1348.65 381.93C1348.96 381.621 1349.53 381.152 1350.46 380.671C1351.43 380.176 1352.53 379.785 1353.73 379.515L1354.32 380.125C1355.17 380.998 1355.62 381.989 1355.62 382.998C1355.62 384.007 1355.17 384.998 1354.32 385.871L1353.7 386.482C1352.52 386.215 1351.42 385.829 1350.46 385.342C1348.79 384.483 1348 383.406 1348 383C1348 382.615 1348.42 382.164 1348.65 381.93ZM1353.06 383C1353.23 383 1353.39 382.971 1353.53 382.916C1353.67 382.861 1353.78 382.783 1353.84 382.691C1353.91 382.6 1353.92 382.499 1353.89 382.402C1353.86 382.305 1353.78 382.216 1353.66 382.146C1353.54 382.076 1353.39 382.029 1353.23 382.01C1353.06 381.99 1352.89 382 1352.74 382.038C1352.59 382.076 1352.45 382.14 1352.36 382.222C1352.27 382.304 1352.22 382.401 1352.22 382.5C1352.22 382.633 1352.31 382.76 1352.47 382.854C1352.62 382.947 1352.84 383 1353.06 383Z" fill="#102D40"/>
<path d="M1699.62 132C1699.62 130.666 1699.13 129.356 1698.2 128.203L1697.83 127.737C1698.61 127.603 1699.4 127.519 1700.2 127.486C1701.27 126.891 1702.87 126.187 1704.71 125.962L1705.84 125.812L1705.19 127.987C1707.23 128.484 1709.02 129.494 1710.21 130.189C1710.44 130.05 1710.68 129.915 1710.93 129.783C1712.87 128.763 1714.96 128.665 1715.05 128.661L1716 128.625L1715.87 129.304C1715.86 129.374 1715.54 130.876 1714.32 131.994C1715.54 133.112 1715.85 134.613 1715.87 134.685L1716 135.375L1715.05 135.327C1714.96 135.324 1712.87 135.226 1710.93 134.206C1710.68 134.076 1710.45 133.943 1710.22 133.806C1709.03 134.503 1707.23 135.515 1705.2 136.012L1705.84 138.188L1704.71 138.039C1702.88 137.816 1701.29 137.111 1700.22 136.516C1699.41 136.482 1698.6 136.397 1697.81 136.262L1698.2 135.799C1699.13 134.645 1699.62 133.334 1699.62 132Z" fill="#153346"/>
<path d="M1691.61 130.796C1691.89 130.449 1692.41 129.921 1693.28 129.38C1694.17 128.824 1695.2 128.383 1696.3 128.079L1696.85 128.766C1697.64 129.747 1698.06 130.862 1698.06 131.997C1698.06 133.133 1697.64 134.248 1696.85 135.23L1696.28 135.918C1695.18 135.617 1694.17 135.183 1693.28 134.635C1691.73 133.669 1691 132.457 1691 132C1691 131.567 1691.39 131.06 1691.61 130.796ZM1695.69 132C1695.84 132 1695.99 131.967 1696.12 131.905C1696.25 131.843 1696.35 131.756 1696.41 131.653C1696.47 131.55 1696.48 131.437 1696.45 131.328C1696.42 131.219 1696.35 131.118 1696.24 131.04C1696.13 130.961 1695.99 130.908 1695.84 130.886C1695.69 130.864 1695.53 130.875 1695.39 130.918C1695.25 130.96 1695.12 131.033 1695.04 131.125C1694.95 131.218 1694.91 131.326 1694.91 131.438C1694.91 131.587 1694.99 131.73 1695.14 131.835C1695.28 131.941 1695.48 132 1695.69 132Z" fill="#153346"/>
<path d="M1718.31 157C1718.31 155.666 1717.78 154.356 1716.78 153.203L1716.37 152.737C1717.22 152.603 1718.08 152.519 1718.94 152.486C1720.1 151.891 1721.82 151.187 1723.81 150.962L1725.03 150.812L1724.33 152.987C1726.52 153.484 1728.46 154.494 1729.75 155.189C1729.99 155.05 1730.25 154.915 1730.52 154.783C1732.62 153.763 1734.88 153.665 1734.98 153.661L1736 153.625L1735.86 154.304C1735.84 154.374 1735.5 155.876 1734.19 156.994C1735.5 158.112 1735.84 159.613 1735.86 159.685L1736 160.375L1734.98 160.327C1734.88 160.324 1732.62 160.226 1730.52 159.206C1730.26 159.076 1730 158.943 1729.76 158.806C1728.47 159.503 1726.53 160.515 1724.33 161.012L1725.03 163.188L1723.81 163.039C1721.83 162.816 1720.11 162.111 1718.96 161.516C1718.08 161.482 1717.21 161.397 1716.36 161.262L1716.77 160.799C1717.78 159.645 1718.31 158.334 1718.31 157Z" fill="#0A283B"/>
<path d="M1709.65 155.796C1709.96 155.449 1710.53 154.921 1711.46 154.38C1712.43 153.824 1713.53 153.383 1714.73 153.079L1715.32 153.766C1716.17 154.747 1716.62 155.862 1716.62 156.997C1716.62 158.133 1716.17 159.248 1715.32 160.23L1714.7 160.918C1713.52 160.617 1712.42 160.183 1711.46 159.635C1709.79 158.669 1709 157.457 1709 157C1709 156.567 1709.42 156.06 1709.65 155.796ZM1714.06 157C1714.23 157 1714.39 156.967 1714.53 156.905C1714.67 156.843 1714.78 156.756 1714.84 156.653C1714.91 156.55 1714.92 156.437 1714.89 156.328C1714.86 156.219 1714.78 156.118 1714.66 156.04C1714.54 155.961 1714.39 155.908 1714.23 155.886C1714.06 155.864 1713.89 155.875 1713.74 155.918C1713.59 155.96 1713.45 156.033 1713.36 156.125C1713.27 156.218 1713.22 156.326 1713.22 156.438C1713.22 156.587 1713.31 156.73 1713.47 156.835C1713.62 156.941 1713.84 157 1714.06 157Z" fill="#0A283B"/>
<path d="M1501.1 231.5C1501.1 230.833 1500.93 230.178 1500.59 229.602L1500.46 229.368C1500.74 229.302 1501.03 229.26 1501.31 229.243C1501.7 228.946 1502.27 228.593 1502.94 228.481L1503.34 228.406L1503.11 229.494C1503.84 229.742 1504.49 230.247 1504.92 230.594C1505 230.525 1505.08 230.457 1505.17 230.391C1505.87 229.882 1506.63 229.832 1506.66 229.831L1507 229.812L1506.95 230.152C1506.95 230.187 1506.83 230.938 1506.4 231.497C1506.83 232.056 1506.95 232.807 1506.95 232.842L1507 233.188L1506.66 233.164C1506.63 233.162 1505.87 233.113 1505.17 232.603C1505.09 232.538 1505 232.471 1504.92 232.403C1504.49 232.752 1503.84 233.257 1503.11 233.506L1503.34 234.594L1502.94 234.52C1502.28 234.408 1501.7 234.056 1501.32 233.758C1501.03 233.741 1500.74 233.699 1500.45 233.631L1500.59 233.399C1500.93 232.823 1501.1 232.167 1501.1 231.5Z" fill="#153346"/>
<path d="M1498.22 230.898C1498.32 230.724 1498.51 230.46 1498.82 230.19C1499.14 229.912 1499.51 229.692 1499.91 229.54L1500.11 229.883C1500.39 230.374 1500.54 230.931 1500.54 231.499C1500.54 232.066 1500.39 232.624 1500.11 233.115L1499.9 233.459C1499.51 233.309 1499.14 233.092 1498.82 232.818C1498.26 232.334 1498 231.729 1498 231.5C1498 231.284 1498.14 231.03 1498.22 230.898ZM1499.69 231.5C1499.74 231.5 1499.8 231.484 1499.84 231.453C1499.89 231.422 1499.93 231.378 1499.95 231.326C1499.97 231.275 1499.97 231.218 1499.96 231.164C1499.95 231.109 1499.93 231.059 1499.89 231.02C1499.85 230.981 1499.8 230.954 1499.74 230.943C1499.69 230.932 1499.63 230.938 1499.58 230.959C1499.53 230.98 1499.48 231.016 1499.45 231.063C1499.42 231.109 1499.41 231.163 1499.41 231.219C1499.41 231.293 1499.44 231.365 1499.49 231.418C1499.54 231.47 1499.61 231.5 1499.69 231.5Z" fill="#153346"/>
<path d="M1480.14 251C1480.14 250.111 1479.9 249.238 1479.46 248.469L1479.28 248.158C1479.65 248.069 1480.03 248.013 1480.42 247.99C1480.93 247.594 1481.7 247.124 1482.58 246.975L1483.12 246.875L1482.81 248.325C1483.79 248.656 1484.65 249.329 1485.22 249.792C1485.33 249.7 1485.45 249.61 1485.57 249.522C1486.5 248.842 1487.5 248.776 1487.54 248.774L1488 248.75L1487.94 249.203C1487.93 249.249 1487.78 250.251 1487.2 250.996C1487.78 251.741 1487.93 252.742 1487.94 252.79L1488 253.25L1487.54 253.218C1487.5 253.216 1486.5 253.15 1485.57 252.47C1485.45 252.384 1485.33 252.295 1485.23 252.204C1484.65 252.669 1483.79 253.343 1482.81 253.674L1483.12 255.125L1482.58 255.026C1481.7 254.877 1480.94 254.407 1480.43 254.011C1480.04 253.988 1479.65 253.932 1479.27 253.841L1479.46 253.532C1479.9 252.763 1480.14 251.89 1480.14 251Z" fill="#153346"/>
<path d="M1476.29 250.197C1476.43 249.966 1476.68 249.614 1477.09 249.253C1477.52 248.882 1478.01 248.589 1478.55 248.386L1478.81 248.844C1479.19 249.498 1479.39 250.241 1479.39 250.998C1479.39 251.755 1479.19 252.498 1478.81 253.153L1478.53 253.612C1478.01 253.411 1477.52 253.122 1477.09 252.757C1476.35 252.113 1476 251.305 1476 251C1476 250.711 1476.19 250.373 1476.29 250.197ZM1478.25 251C1478.32 251 1478.4 250.978 1478.46 250.937C1478.52 250.896 1478.57 250.837 1478.6 250.768C1478.62 250.7 1478.63 250.625 1478.62 250.552C1478.6 250.479 1478.57 250.412 1478.52 250.36C1478.46 250.307 1478.4 250.272 1478.32 250.257C1478.25 250.243 1478.18 250.25 1478.11 250.279C1478.04 250.307 1477.98 250.355 1477.94 250.417C1477.9 250.478 1477.88 250.551 1477.88 250.625C1477.88 250.724 1477.91 250.82 1477.98 250.89C1478.06 250.96 1478.15 251 1478.25 251Z" fill="#153346"/>
</g>
<defs>
<filter id="filter0_d_28_70" x="-316.415" y="0" width="2374.41" height="1214.92" filterUnits="userSpaceOnUse" color-interpolation-filters="sRGB">
<feFlood flood-opacity="0" result="BackgroundImageFix"/>
<feColorMatrix in="SourceAlpha" type="matrix" values="0 0 0 0 0 0 0 0 0 0 0 0 0 0 0 0 0 0 127 0" result="hardAlpha"/>
<feOffset dy="4"/>
<feGaussianBlur stdDeviation="2"/>
<feComposite in2="hardAlpha" operator="out"/>
<feColorMatrix type="matrix" values="0 0 0 0 0 0 0 0 0 0 0 0 0 0 0 0 0 0 0.25 0"/>
<feBlend mode="normal" in2="BackgroundImageFix" result="effect1_dropShadow_28_70"/>
<feBlend mode="normal" in="SourceGraphic" in2="effect1_dropShadow_28_70" result="shape"/>
</filter>
</defs>
</svg>
