<svg width="485" height="743" viewBox="0 0 485 743" fill="none" xmlns="http://www.w3.org/2000/svg">
<g filter="url(#filter0_b_15_125)">
<path fill-rule="evenodd" clip-rule="evenodd" d="M168.699 0H251.301V37.8453L210 61.6906L168.699 37.8453V0ZM253.301 39V0H475C480.523 0 485 4.47715 485 10V623.928L453.699 642V692L485 710.072V712.475L453 694L409.699 719V743H407.301V719L364 694L320.699 719V743H318.301V719L275 694L231.699 719V743H10C4.47715 743 0 738.523 0 733V134.072L31.3013 116V66L0 47.9282V45.5248L32 64L75.3013 39V0H77.6987V39L121 64L164.301 39V0H166.699V39L210 64L253.301 39ZM453 696.309L485 714.785V733C485 738.523 480.523 743 475 743H411.699V720.155L453 696.309ZM455.699 643.155L485 626.238V707.762L455.699 690.845V643.155ZM316.301 720.155V743H233.699V720.155L275 696.309L316.301 720.155ZM322.699 743V720.155L364 696.309L405.301 720.155V743H322.699ZM162.301 0H79.6987V37.8453L121 61.6906L162.301 37.8453V0ZM10 0H73.3013V37.8453L32 61.6906L0 43.2154V10C0 4.47717 4.47715 0 10 0ZM29.3013 114.845L0 131.762V50.2376L29.3013 67.1547V114.845ZM35.6987 67.1547L77 43.3094L118.301 67.1547V114.845L77 138.691L35.6987 114.845V67.1547ZM77 41L120.301 66V116L77 141L33.6987 116V66L77 41ZM213.699 67.1547L255 43.3094L296.301 67.1547V114.845L255 138.691L213.699 114.845V67.1547ZM255 41L298.301 66V116L255 141L211.699 116V66L255 41ZM166 43.3094L124.699 67.1547V114.845L166 138.691L207.301 114.845V67.1547L166 43.3094ZM209.301 66L166 41L122.699 66V116L166 141L209.301 116V66ZM188.699 643.155L230 619.309L271.301 643.155V690.845L230 714.691L188.699 690.845V643.155ZM230 617L273.301 642V692L230 717L186.699 692V642L230 617ZM319 619.309L277.699 643.155V690.845L319 714.691L360.301 690.845V643.155L319 619.309ZM362.301 642L319 617L275.699 642V692L319 717L362.301 692V642ZM366.699 643.155L408 619.309L449.301 643.155V690.845L408 714.691L366.699 690.845V643.155ZM408 617L451.301 642V692L408 717L364.699 692V642L408 617ZM188.936 415.24C188.285 414.622 187.503 414.312 186.592 414.312C185.713 414.345 184.964 414.671 184.346 415.289C183.727 415.875 183.402 416.607 183.369 417.486V429.84C183.402 432.151 183.727 434.332 184.346 436.383C184.997 438.434 186.055 440.175 187.52 441.607C189.017 443.007 190.905 443.772 193.184 443.902H210.469C211.348 443.87 212.08 443.561 212.666 442.975C213.285 442.356 213.61 441.607 213.643 440.729C213.643 439.817 213.333 439.036 212.715 438.385C212.129 437.734 211.38 437.392 210.469 437.359H194.844C193.607 437.294 192.581 436.822 191.768 435.943C190.954 435.064 190.433 434.072 190.205 432.965C190.01 431.826 189.928 430.589 189.961 429.254V417.486C189.928 416.575 189.587 415.826 188.936 415.24ZM220.039 424.322C220.918 425.234 222.008 425.689 223.311 425.689C224.613 425.689 225.703 425.25 226.582 424.371C227.461 423.46 227.9 422.32 227.9 420.953C227.9 419.586 227.461 418.447 226.582 417.535C225.736 416.624 224.645 416.168 223.311 416.168C222.008 416.168 220.918 416.624 220.039 417.535C219.193 418.447 218.77 419.586 218.77 420.953C218.77 422.288 219.193 423.411 220.039 424.322ZM220.039 443.316C220.918 444.228 222.008 444.684 223.311 444.684C224.613 444.684 225.703 444.228 226.582 443.316C227.461 442.405 227.9 441.266 227.9 439.898C227.9 438.531 227.461 437.392 226.582 436.48C225.703 435.569 224.613 435.113 223.311 435.113C222.008 435.113 220.918 435.569 220.039 436.48C219.193 437.392 218.77 438.531 218.77 439.898C218.77 441.266 219.193 442.405 220.039 443.316ZM239.326 432.477C240.824 436.122 242.321 439.068 243.818 441.314C245.283 443.528 247.432 444.651 250.264 444.684C253.063 444.651 255.195 443.544 256.66 441.363C258.158 439.15 259.655 436.188 261.152 432.477L266.523 418.609C266.686 418.251 266.784 417.861 266.816 417.438C266.882 416.526 266.605 415.745 265.986 415.094C265.4 414.443 264.635 414.117 263.691 414.117C262.617 414.117 261.82 414.345 261.299 414.801C260.811 415.224 260.404 415.777 260.078 416.461L255.537 429.156C255.016 430.491 254.495 431.76 253.975 432.965C253.486 434.137 252.917 435.211 252.266 436.188C251.68 437.164 251.012 437.685 250.264 437.75C249.482 437.685 248.783 437.164 248.164 436.188C247.546 435.211 246.976 434.137 246.455 432.965C245.967 431.76 245.462 430.491 244.941 429.156L240.303 416.461C239.977 415.777 239.554 415.224 239.033 414.801C238.545 414.345 237.796 414.117 236.787 414.117C235.843 414.117 235.062 414.443 234.443 415.094C233.857 415.745 233.597 416.526 233.662 417.438C233.695 417.861 233.792 418.251 233.955 418.609L239.326 432.477ZM283.174 415.094H280.928C278.649 415.224 276.777 416.103 275.312 417.73C273.848 419.326 272.79 421.148 272.139 423.199C271.488 425.25 271.162 427.35 271.162 429.498C271.162 431.646 271.471 433.746 272.09 435.797C272.741 437.848 273.799 439.687 275.264 441.314C276.761 442.91 278.649 443.772 280.928 443.902H281.855H299.775C300.654 443.87 301.387 443.561 301.973 442.975C302.591 442.356 302.917 441.607 302.949 440.729C302.949 439.817 302.64 439.036 302.021 438.385C301.436 437.734 300.687 437.392 299.775 437.359H282.588C281.351 437.294 280.326 436.822 279.512 435.943C278.698 435.064 278.096 434.072 277.705 432.965C277.347 431.826 277.168 430.67 277.168 429.498C277.168 428.326 277.347 427.187 277.705 426.08C278.096 424.941 278.698 423.932 279.512 423.053C280.326 422.174 281.351 421.702 282.588 421.637H299.775C301.729 421.474 302.786 420.416 302.949 418.463C302.949 417.551 302.64 416.77 302.021 416.119C301.436 415.468 300.687 415.126 299.775 415.094H283.174ZM301.875 431.598C302.526 430.979 302.852 430.214 302.852 429.303C302.852 428.391 302.526 427.626 301.875 427.008C301.257 426.357 300.492 426.031 299.58 426.031H284.834C283.923 426.031 283.141 426.34 282.49 426.959C281.872 427.61 281.562 428.391 281.562 429.303C281.562 430.214 281.872 430.995 282.49 431.646C283.141 432.265 283.923 432.574 284.834 432.574H299.58C300.492 432.574 301.257 432.249 301.875 431.598ZM218.827 328.813C220.662 329.874 222.866 330.218 225.217 329.811L226.164 329.653C225.708 330.868 225.171 332.064 224.561 333.229C224.499 335.223 224.158 338.053 222.956 340.848L222.234 342.575L219.777 339.919C217.423 342.417 214.561 344.166 212.63 345.303C212.632 345.74 212.621 346.189 212.596 346.651C212.408 350.218 210.825 353.273 210.757 353.401L210.028 354.778L209.201 354.053C209.116 353.977 207.31 352.333 206.768 349.719C204.278 350.542 201.99 349.838 201.805 349.781L201.797 349.779L200.74 349.415L201.585 348.105C201.662 347.983 203.515 345.084 206.51 343.138C206.891 342.89 207.269 342.659 207.644 342.445C207.661 340.199 207.743 336.843 208.73 333.553L205.205 332.744L206.338 331.254C208.147 328.828 210.424 327.127 212.12 326.078C212.833 324.951 213.611 323.873 214.447 322.856L214.767 323.774C215.59 326.014 216.991 327.753 218.827 328.813ZM227.64 321.875C227.603 320.221 227.305 319.059 227.062 318.377C226.875 317.861 226.498 316.903 225.902 316.559C225.273 316.196 223.006 316.271 220.405 317.706C218.92 318.536 217.491 319.634 216.179 320.95L216.654 322.313C217.357 324.216 218.55 325.694 220.113 326.594C221.676 327.495 223.552 327.787 225.553 327.442L226.945 327.212C227.434 325.398 227.669 323.592 227.64 321.875ZM221.829 323.915C221.85 323.683 221.928 323.442 222.055 323.222C222.225 322.928 222.47 322.692 222.735 322.568C223 322.444 223.265 322.44 223.47 322.559C223.623 322.647 223.735 322.799 223.792 322.994C223.849 323.19 223.848 323.42 223.789 323.657C223.731 323.894 223.617 324.126 223.463 324.324C223.309 324.522 223.121 324.678 222.923 324.771C222.725 324.863 222.526 324.889 222.351 324.846C222.176 324.802 222.033 324.69 221.94 324.524C221.847 324.359 221.809 324.146 221.829 323.915ZM259.495 317.827C258.434 319.662 258.09 321.866 258.497 324.217L258.655 325.164C257.44 324.708 256.244 324.171 255.079 323.561C253.085 323.499 250.255 323.158 247.46 321.956L245.733 321.234L248.389 318.777C245.891 316.423 244.142 313.561 243.005 311.63C242.568 311.632 242.119 311.621 241.657 311.596C238.09 311.408 235.035 309.825 234.907 309.757L233.53 309.028L234.255 308.201C234.331 308.116 235.975 306.31 238.589 305.768C237.766 303.277 238.47 300.99 238.527 300.805L238.529 300.797L238.893 299.74L240.203 300.585C240.325 300.662 243.224 302.515 245.17 305.51C245.418 305.891 245.649 306.269 245.863 306.644C248.109 306.661 251.465 306.743 254.755 307.73L255.564 304.205L257.055 305.338C259.48 307.147 261.181 309.424 262.23 311.12C263.357 311.833 264.435 312.611 265.452 313.447L264.534 313.767C262.294 314.59 260.555 315.991 259.495 317.827ZM266.433 326.64C268.087 326.603 269.249 326.305 269.931 326.062C270.447 325.875 271.405 325.498 271.749 324.902C272.112 324.273 272.037 322.006 270.602 319.405C269.772 317.92 268.674 316.491 267.358 315.179L265.995 315.654C264.092 316.357 262.614 317.55 261.714 319.113C260.813 320.676 260.521 322.552 260.866 324.553L261.096 325.945C262.91 326.434 264.716 326.669 266.433 326.64ZM264.393 320.829C264.625 320.85 264.866 320.928 265.086 321.055C265.38 321.225 265.616 321.47 265.74 321.735C265.865 322 265.868 322.265 265.749 322.47C265.661 322.623 265.509 322.735 265.314 322.792C265.118 322.849 264.888 322.848 264.651 322.789C264.414 322.731 264.182 322.617 263.984 322.463C263.786 322.309 263.63 322.121 263.538 321.923C263.445 321.725 263.419 321.526 263.462 321.351C263.506 321.176 263.618 321.033 263.784 320.94C263.949 320.847 264.162 320.809 264.393 320.829ZM226.083 374.878C227.143 373.043 227.487 370.838 227.081 368.488L226.922 367.541C228.137 367.997 229.334 368.533 230.498 369.144C232.493 369.206 235.322 369.546 238.117 370.748L239.845 371.471L237.189 373.928C239.686 376.281 241.436 379.144 242.572 381.075C243.009 381.073 243.459 381.084 243.921 381.108C247.487 381.297 250.542 382.88 250.67 382.947L252.047 383.676L251.323 384.503C251.247 384.588 249.602 386.395 246.989 386.937C247.811 389.427 247.107 391.715 247.05 391.899L247.048 391.907L246.685 392.964L245.374 392.12C245.252 392.043 242.353 390.189 240.407 387.195C240.159 386.814 239.928 386.436 239.714 386.061C237.469 386.044 234.113 385.962 230.822 384.974L230.013 388.499L228.523 387.367C226.098 385.557 224.396 383.281 223.347 381.584C222.22 380.872 221.142 380.093 220.126 379.258L221.043 378.937C223.284 378.115 225.023 376.714 226.083 374.878ZM219.145 366.065C217.49 366.101 216.328 366.4 215.646 366.643C215.131 366.83 214.172 367.207 213.828 367.803C213.465 368.431 213.54 370.698 214.976 373.299C215.806 374.784 216.903 376.214 218.22 377.526L219.582 377.05C221.486 376.347 222.963 375.154 223.864 373.592C224.764 372.029 225.057 370.152 224.711 368.152L224.481 366.759C222.667 366.27 220.862 366.035 219.145 366.065ZM221.184 371.875C220.952 371.855 220.711 371.776 220.492 371.65C220.197 371.48 219.962 371.235 219.837 370.97C219.713 370.704 219.71 370.44 219.828 370.234C219.916 370.081 220.068 369.969 220.264 369.913C220.459 369.856 220.69 369.857 220.926 369.915C221.163 369.974 221.395 370.087 221.594 370.242C221.792 370.396 221.947 370.584 222.04 370.782C222.133 370.98 222.159 371.179 222.115 371.354C222.071 371.528 221.959 371.671 221.794 371.764C221.628 371.857 221.416 371.896 221.184 371.875ZM267.173 363.469C265.338 362.408 263.134 362.064 260.783 362.471L259.836 362.629C260.292 361.415 260.829 360.218 261.439 359.054C261.501 357.059 261.842 354.229 263.044 351.434L263.766 349.707L266.223 352.363C268.577 349.865 271.439 348.116 273.37 346.979C273.368 346.542 273.379 346.093 273.404 345.631C273.592 342.064 275.175 339.009 275.243 338.882L275.972 337.504L276.799 338.229C276.884 338.305 278.69 339.949 279.232 342.563C281.722 341.74 284.01 342.444 284.195 342.501L284.203 342.504L285.26 342.867L284.415 344.177C284.338 344.3 282.485 347.199 279.49 349.145C279.109 349.392 278.731 349.623 278.356 349.838C278.339 352.083 278.257 355.439 277.27 358.729L280.795 359.538L279.662 361.029C277.853 363.454 275.576 365.156 273.879 366.204C273.167 367.331 272.389 368.409 271.553 369.426L271.233 368.509C270.41 366.268 269.009 364.529 267.173 363.469ZM258.36 370.407C258.397 372.062 258.695 373.223 258.938 373.905C259.125 374.421 259.502 375.379 260.098 375.723C260.727 376.086 262.993 376.011 265.595 374.576C267.08 373.746 268.509 372.649 269.821 371.332L269.346 369.97C268.643 368.066 267.45 366.589 265.887 365.688C264.324 364.787 262.448 364.495 260.447 364.84L259.055 365.07C258.566 366.884 258.331 368.69 258.36 370.407ZM264.171 368.367C264.15 368.599 264.072 368.84 263.945 369.06C263.775 369.354 263.53 369.59 263.265 369.714C263 369.839 262.735 369.842 262.53 369.723C262.377 369.635 262.265 369.484 262.208 369.288C262.151 369.092 262.152 368.862 262.211 368.625C262.269 368.388 262.383 368.156 262.537 367.958C262.691 367.76 262.879 367.604 263.077 367.512C263.275 367.419 263.474 367.393 263.649 367.437C263.824 367.48 263.967 367.592 264.06 367.758C264.152 367.924 264.191 368.136 264.171 368.367Z" fill="white"/>
</g>
<defs>
<filter id="filter0_b_15_125" x="-4" y="-4" width="493" height="751" filterUnits="userSpaceOnUse" color-interpolation-filters="sRGB">
<feFlood flood-opacity="0" result="BackgroundImageFix"/>
<feGaussianBlur in="BackgroundImageFix" stdDeviation="2"/>
<feComposite in2="SourceAlpha" operator="in" result="effect1_backgroundBlur_15_125"/>
<feBlend mode="normal" in="SourceGraphic" in2="effect1_backgroundBlur_15_125" result="shape"/>
</filter>
</defs>
</svg>
